{
	"asset":{
		"generator":"Khronos glTF Blender I/O v3.6.27",
		"version":"2.0"
	},
	"scene":0,
	"scenes":[
		{
			"name":"Scene",
			"nodes":[
				0,
				1,
				2
			]
		}
	],
	"nodes":[
		{
			"mesh":0,
			"name":"BillBoard"
		},
		{
			"mesh":1,
			"name":"Ladders",
			"rotation":[
				0,
				0,
				-0.006749232765287161,
				0.9999772310256958
			]
		},
		{
			"mesh":2,
			"name":"Plane.001"
		}
	],
	"materials":[
		{
			"doubleSided":true,
			"name":"Steel_Black",
			"pbrMetallicRoughness":{
				"baseColorFactor":[
					0,
					0,
					0,
					1
				],
				"metallicFactor":0,
				"roughnessFactor":0.5
			}
		},
		{
			"doubleSided":true,
			"name":"Sign",
			"pbrMetallicRoughness":{
				"baseColorFactor":[
					0.25581371784210205,
					0.8000000715255737,
					0.790787398815155,
					1
				],
				"metallicFactor":0,
				"roughnessFactor":0.5
			}
		},
		{
			"doubleSided":true,
			"name":"Steel_Black",
			"pbrMetallicRoughness":{
				"baseColorFactor":[
					0,
					0,
					0,
					1
				],
				"metallicFactor":0,
				"roughnessFactor":0.5
			}
		},
		{
			"doubleSided":true,
			"name":"White Light",
			"pbrMetallicRoughness":{
				"baseColorFactor":[
					0.800000011920929,
					0.800000011920929,
					0.800000011920929,
					1
				],
				"metallicFactor":0,
				"roughnessFactor":0.5
			}
		}
	],
	"meshes":[
		{
			"name":"Plane",
			"primitives":[
				{
					"attributes":{
						"POSITION":0,
						"NORMAL":1,
						"TEXCOORD_0":2
					},
					"indices":3,
					"material":0
				},
				{
					"attributes":{
						"POSITION":4,
						"NORMAL":5,
						"TEXCOORD_0":6
					},
					"indices":7,
					"material":1
				}
			]
		},
		{
			"name":"Cube.001",
			"primitives":[
				{
					"attributes":{
						"POSITION":8,
						"NORMAL":9,
						"TEXCOORD_0":10,
						"TANGENT":11
					},
					"indices":12,
					"material":0
				}
			]
		},
		{
			"name":"Plane.002",
			"primitives":[
				{
					"attributes":{
						"POSITION":13,
						"NORMAL":14,
						"TEXCOORD_0":15
					},
					"indices":16,
					"material":2
				},
				{
					"attributes":{
						"POSITION":17,
						"NORMAL":18,
						"TEXCOORD_0":19
					},
					"indices":20,
					"material":3
				}
			]
		}
	],
	"accessors":[
		{
			"bufferView":0,
			"componentType":5126,
			"count":279,
			"max":[
				1.6825501918792725,
				4.360591411590576,
				0.22560802102088928
			],
			"min":[
				-1.6956760883331299,
				0.06466048955917358,
				-0.22560802102088928
			],
			"type":"VEC3"
		},
		{
			"bufferView":1,
			"componentType":5126,
			"count":279,
			"type":"VEC3"
		},
		{
			"bufferView":2,
			"componentType":5126,
			"count":279,
			"type":"VEC2"
		},
		{
			"bufferView":3,
			"componentType":5123,
			"count":702,
			"type":"SCALAR"
		},
		{
			"bufferView":4,
			"componentType":5126,
			"count":4,
			"max":[
				1.4691880941390991,
				4.188603401184082,
				0.0972260907292366
			],
			"min":[
				-1.4823139905929565,
				2.558145523071289,
				0.0972260907292366
			],
			"type":"VEC3"
		},
		{
			"bufferView":5,
			"componentType":5126,
			"count":4,
			"type":"VEC3"
		},
		{
			"bufferView":6,
			"componentType":5126,
			"count":4,
			"type":"VEC2"
		},
		{
			"bufferView":7,
			"componentType":5123,
			"count":6,
			"type":"SCALAR"
		},
		{
			"bufferView":8,
			"componentType":5126,
			"count":622,
			"max":[
				-0.12957698106765747,
				2.273148536682129,
				0.08936323970556259
			],
			"min":[
				-0.17174702882766724,
				0.2911665439605713,
				-0.09462003409862518
			],
			"type":"VEC3"
		},
		{
			"bufferView":9,
			"componentType":5126,
			"count":622,
			"type":"VEC3"
		},
		{
			"bufferView":10,
			"componentType":5126,
			"count":622,
			"type":"VEC2"
		},
		{
			"bufferView":11,
			"componentType":5126,
			"count":622,
			"type":"VEC4"
		},
		{
			"bufferView":12,
			"componentType":5123,
			"count":1080,
			"type":"SCALAR"
		},
		{
			"bufferView":13,
			"componentType":5126,
			"count":516,
			"max":[
				1.2877492904663086,
				4.456782817840576,
				0.31518125534057617
			],
			"min":[
				-1.2877492904663086,
				4.3409342765808105,
				-0.08134399354457855
			],
			"type":"VEC3"
		},
		{
			"bufferView":14,
			"componentType":5126,
			"count":516,
			"type":"VEC3"
		},
		{
			"bufferView":15,
			"componentType":5126,
			"count":516,
			"type":"VEC2"
		},
		{
			"bufferView":16,
			"componentType":5123,
			"count":900,
			"type":"SCALAR"
		},
		{
			"bufferView":17,
			"componentType":5126,
			"count":24,
			"max":[
				1.2877492904663086,
				4.386504173278809,
				0.31518125534057617
			],
			"min":[
				-1.2877492904663086,
				4.3409342765808105,
				0.13968278467655182
			],
			"type":"VEC3"
		},
		{
			"bufferView":18,
			"componentType":5126,
			"count":24,
			"type":"VEC3"
		},
		{
			"bufferView":19,
			"componentType":5126,
			"count":24,
			"type":"VEC2"
		},
		{
			"bufferView":20,
			"componentType":5123,
			"count":36,
			"type":"SCALAR"
		}
	],
	"bufferViews":[
		{
			"buffer":0,
			"byteLength":3348,
			"byteOffset":0,
			"target":34962
		},
		{
			"buffer":0,
			"byteLength":3348,
			"byteOffset":3348,
			"target":34962
		},
		{
			"buffer":0,
			"byteLength":2232,
			"byteOffset":6696,
			"target":34962
		},
		{
			"buffer":0,
			"byteLength":1404,
			"byteOffset":8928,
			"target":34963
		},
		{
			"buffer":0,
			"byteLength":48,
			"byteOffset":10332,
			"target":34962
		},
		{
			"buffer":0,
			"byteLength":48,
			"byteOffset":10380,
			"target":34962
		},
		{
			"buffer":0,
			"byteLength":32,
			"byteOffset":10428,
			"target":34962
		},
		{
			"buffer":0,
			"byteLength":12,
			"byteOffset":10460,
			"target":34963
		},
		{
			"buffer":0,
			"byteLength":7464,
			"byteOffset":10472,
			"target":34962
		},
		{
			"buffer":0,
			"byteLength":7464,
			"byteOffset":17936,
			"target":34962
		},
		{
			"buffer":0,
			"byteLength":4976,
			"byteOffset":25400,
			"target":34962
		},
		{
			"buffer":0,
			"byteLength":9952,
			"byteOffset":30376,
			"target":34962
		},
		{
			"buffer":0,
			"byteLength":2160,
			"byteOffset":40328,
			"target":34963
		},
		{
			"buffer":0,
			"byteLength":6192,
			"byteOffset":42488,
			"target":34962
		},
		{
			"buffer":0,
			"byteLength":6192,
			"byteOffset":48680,
			"target":34962
		},
		{
			"buffer":0,
			"byteLength":4128,
			"byteOffset":54872,
			"target":34962
		},
		{
			"buffer":0,
			"byteLength":1800,
			"byteOffset":59000,
			"target":34963
		},
		{
			"buffer":0,
			"byteLength":288,
			"byteOffset":60800,
			"target":34962
		},
		{
			"buffer":0,
			"byteLength":288,
			"byteOffset":61088,
			"target":34962
		},
		{
			"buffer":0,
			"byteLength":192,
			"byteOffset":61376,
			"target":34962
		},
		{
			"buffer":0,
			"byteLength":72,
			"byteOffset":61568,
			"target":34963
		}
	],
	"buffers":[
		{
			"byteLength":61640,
			"uri":"BillBoard-f47539ae80901f61c0f5590082302d77.bin"
		}
	]
}
