{
	"asset":{
		"generator":"Khronos glTF Blender I/O v3.6.27",
		"version":"2.0"
	},
	"scene":0,
	"scenes":[
		{
			"name":"Scene",
			"nodes":[
				0
			]
		}
	],
	"nodes":[
		{
			"mesh":0,
			"name":"Cube"
		}
	],
	"meshes":[
		{
			"name":"Cube.001",
			"primitives":[
				{
					"attributes":{
						"POSITION":0,
						"NORMAL":1,
						"TEXCOORD_0":2
					},
					"indices":3
				}
			]
		}
	],
	"accessors":[
		{
			"bufferView":0,
			"componentType":5126,
			"count":888,
			"max":[
				3.922956943511963,
				3.0848498344421387,
				0.4068698585033417
			],
			"min":[
				-3.922956943511963,
				0,
				-0.28280556201934814
			],
			"type":"VEC3"
		},
		{
			"bufferView":1,
			"componentType":5126,
			"count":888,
			"type":"VEC3"
		},
		{
			"bufferView":2,
			"componentType":5126,
			"count":888,
			"type":"VEC2"
		},
		{
			"bufferView":3,
			"componentType":5123,
			"count":2484,
			"type":"SCALAR"
		}
	],
	"bufferViews":[
		{
			"buffer":0,
			"byteLength":10656,
			"byteOffset":0,
			"target":34962
		},
		{
			"buffer":0,
			"byteLength":10656,
			"byteOffset":10656,
			"target":34962
		},
		{
			"buffer":0,
			"byteLength":7104,
			"byteOffset":21312,
			"target":34962
		},
		{
			"buffer":0,
			"byteLength":4968,
			"byteOffset":28416,
			"target":34963
		}
	],
	"buffers":[
		{
			"byteLength":33384,
			"uri":"Breakable_Traffic-9e1a8eb2ff9a7035d9c98a7bc6cbb357.bin"
		}
	]
}
