{
	"asset":{
		"generator":"Khronos glTF Blender I/O v3.6.27",
		"version":"2.0"
	},
	"extensionsUsed":[
		"KHR_materials_unlit",
		"KHR_materials_specular",
		"KHR_materials_ior"
	],
	"scene":0,
	"scenes":[
		{
			"name":"Scene",
			"nodes":[
				0,
				1,
				2,
				3,
				4
			]
		}
	],
	"nodes":[
		{
			"mesh":0,
			"name":"Main Body",
			"rotation":[
				0.70710688829422,
				0,
				0,
				0.7071066498756409
			]
		},
		{
			"mesh":1,
			"name":"Wheel_FR",
			"rotation":[
				0.70710688829422,
				0,
				0,
				0.7071066498756409
			]
		},
		{
			"mesh":2,
			"name":"Wheel_BR",
			"rotation":[
				0.70710688829422,
				0,
				0,
				0.7071066498756409
			]
		},
		{
			"mesh":3,
			"name":"Wheel_FL",
			"rotation":[
				0.70710688829422,
				0,
				0,
				0.7071066498756409
			]
		},
		{
			"mesh":4,
			"name":"Wheel_BL",
			"rotation":[
				0.70710688829422,
				0,
				0,
				0.7071066498756409
			]
		}
	],
	"materials":[
		{
			"doubleSided":true,
			"extensions":{
				"KHR_materials_unlit":{}
			},
			"name":"Body Color",
			"pbrMetallicRoughness":{
				"metallicFactor":0,
				"roughnessFactor":0.9
			}
		},
		{
			"doubleSided":true,
			"extensions":{
				"KHR_materials_specular":{
					"specularColorFactor":[
						2.371357614441398,
						2.371357614441398,
						2.371357614441398
					]
				},
				"KHR_materials_ior":{
					"ior":1.4500000476837158
				}
			},
			"name":"Glass Color",
			"pbrMetallicRoughness":{
				"baseColorFactor":[
					0,
					0,
					0,
					1
				],
				"metallicFactor":0,
				"roughnessFactor":0
			}
		},
		{
			"doubleSided":true,
			"extensions":{
				"KHR_materials_specular":{
					"specularColorFactor":[
						2.371357614441398,
						2.371357614441398,
						2.371357614441398
					]
				},
				"KHR_materials_ior":{
					"ior":1.4500000476837158
				}
			},
			"name":"Pipe Color",
			"pbrMetallicRoughness":{
				"baseColorFactor":[
					0,
					0,
					0,
					1
				]
			}
		},
		{
			"doubleSided":true,
			"name":"Wheels Color",
			"pbrMetallicRoughness":{
				"baseColorFactor":[
					0.0012141057522967458,
					0.00151763332542032,
					0.001821161713451147,
					1
				],
				"metallicFactor":0
			}
		},
		{
			"doubleSided":true,
			"name":"Wheels Inside Color",
			"pbrMetallicRoughness":{
				"baseColorFactor":[
					0.0012141057522967458,
					0.00151763332542032,
					0.001821161713451147,
					1
				],
				"metallicFactor":0,
				"roughnessFactor":0.9591742753982544
			}
		},
		{
			"doubleSided":true,
			"extensions":{
				"KHR_materials_specular":{
					"specularColorFactor":[
						0.7614450420146462,
						0.7614450420146462,
						0.7614450420146462
					]
				},
				"KHR_materials_ior":{
					"ior":1.4500000476837158
				}
			},
			"name":"Material.001",
			"pbrMetallicRoughness":{
				"baseColorFactor":[
					0,
					0,
					0,
					1
				],
				"metallicFactor":0
			}
		}
	],
	"meshes":[
		{
			"name":"Creo Dift Car TURNIN",
			"primitives":[
				{
					"attributes":{
						"POSITION":0,
						"NORMAL":1,
						"TEXCOORD_0":2
					},
					"indices":3,
					"material":0
				},
				{
					"attributes":{
						"POSITION":4,
						"NORMAL":5,
						"TEXCOORD_0":6
					},
					"indices":7,
					"material":1
				},
				{
					"attributes":{
						"POSITION":8,
						"NORMAL":9,
						"TEXCOORD_0":10
					},
					"indices":11,
					"material":2
				}
			]
		},
		{
			"name":"Creo Dift Car TURNIN.007",
			"primitives":[
				{
					"attributes":{
						"POSITION":12,
						"NORMAL":13,
						"TEXCOORD_0":14,
						"TANGENT":15
					},
					"indices":16,
					"material":3
				},
				{
					"attributes":{
						"POSITION":17,
						"NORMAL":18,
						"TEXCOORD_0":19,
						"TANGENT":20
					},
					"indices":21,
					"material":4
				},
				{
					"attributes":{
						"POSITION":22,
						"NORMAL":23,
						"TEXCOORD_0":24,
						"TANGENT":25
					},
					"indices":26,
					"material":5
				}
			]
		},
		{
			"name":"Creo Dift Car TURNIN.008",
			"primitives":[
				{
					"attributes":{
						"POSITION":27,
						"NORMAL":28,
						"TEXCOORD_0":29,
						"TANGENT":30
					},
					"indices":31,
					"material":3
				},
				{
					"attributes":{
						"POSITION":32,
						"NORMAL":33,
						"TEXCOORD_0":34,
						"TANGENT":35
					},
					"indices":36,
					"material":4
				},
				{
					"attributes":{
						"POSITION":37,
						"NORMAL":38,
						"TEXCOORD_0":39,
						"TANGENT":40
					},
					"indices":41,
					"material":5
				}
			]
		},
		{
			"name":"Creo Dift Car TURNIN.009",
			"primitives":[
				{
					"attributes":{
						"POSITION":42,
						"NORMAL":43,
						"TEXCOORD_0":44,
						"TANGENT":45
					},
					"indices":46,
					"material":3
				},
				{
					"attributes":{
						"POSITION":47,
						"NORMAL":48,
						"TEXCOORD_0":49,
						"TANGENT":50
					},
					"indices":36,
					"material":4
				},
				{
					"attributes":{
						"POSITION":51,
						"NORMAL":52,
						"TEXCOORD_0":53,
						"TANGENT":54
					},
					"indices":55,
					"material":5
				}
			]
		},
		{
			"name":"Creo Dift Car TURNIN.010",
			"primitives":[
				{
					"attributes":{
						"POSITION":56,
						"NORMAL":57,
						"TEXCOORD_0":58,
						"TANGENT":59
					},
					"indices":60,
					"material":3
				},
				{
					"attributes":{
						"POSITION":61,
						"NORMAL":62,
						"TEXCOORD_0":63,
						"TANGENT":64
					},
					"indices":21,
					"material":4
				},
				{
					"attributes":{
						"POSITION":65,
						"NORMAL":66,
						"TEXCOORD_0":67,
						"TANGENT":68
					},
					"indices":69,
					"material":5
				}
			]
		}
	],
	"accessors":[
		{
			"bufferView":0,
			"componentType":5126,
			"count":751,
			"max":[
				1.626689076423645,
				3.48842191696167,
				-0.14715415239334106
			],
			"min":[
				-1.6338658332824707,
				-3.3340444564819336,
				-2.2188780307769775
			],
			"type":"VEC3"
		},
		{
			"bufferView":1,
			"componentType":5126,
			"count":751,
			"type":"VEC3"
		},
		{
			"bufferView":2,
			"componentType":5126,
			"count":751,
			"type":"VEC2"
		},
		{
			"bufferView":3,
			"componentType":5123,
			"count":2025,
			"type":"SCALAR"
		},
		{
			"bufferView":4,
			"componentType":5126,
			"count":28,
			"max":[
				1.208665132522583,
				1.249943733215332,
				-1.1549872159957886
			],
			"min":[
				-1.1672008037567139,
				-2.8680648803710938,
				-2.0331871509552
			],
			"type":"VEC3"
		},
		{
			"bufferView":5,
			"componentType":5126,
			"count":28,
			"type":"VEC3"
		},
		{
			"bufferView":6,
			"componentType":5126,
			"count":28,
			"type":"VEC2"
		},
		{
			"bufferView":7,
			"componentType":5123,
			"count":42,
			"type":"SCALAR"
		},
		{
			"bufferView":8,
			"componentType":5126,
			"count":10168,
			"max":[
				1.4490290880203247,
				2.7980823516845703,
				0.0004908436676487327
			],
			"min":[
				-1.3722407817840576,
				-3.2878332138061523,
				-0.6392521858215332
			],
			"type":"VEC3"
		},
		{
			"bufferView":9,
			"componentType":5126,
			"count":10168,
			"type":"VEC3"
		},
		{
			"bufferView":10,
			"componentType":5126,
			"count":10168,
			"type":"VEC2"
		},
		{
			"bufferView":11,
			"componentType":5123,
			"count":44772,
			"type":"SCALAR"
		},
		{
			"bufferView":12,
			"componentType":5126,
			"count":1632,
			"max":[
				2.3617184162139893,
				-0.8111108541488647,
				0.4765847325325012
			],
			"min":[
				1.1716020107269287,
				-2.849302291870117,
				-1.5971245765686035
			],
			"type":"VEC3"
		},
		{
			"bufferView":13,
			"componentType":5126,
			"count":1632,
			"type":"VEC3"
		},
		{
			"bufferView":14,
			"componentType":5126,
			"count":1632,
			"type":"VEC2"
		},
		{
			"bufferView":15,
			"componentType":5126,
			"count":1632,
			"type":"VEC4"
		},
		{
			"bufferView":16,
			"componentType":5123,
			"count":3108,
			"type":"SCALAR"
		},
		{
			"bufferView":17,
			"componentType":5126,
			"count":18,
			"max":[
				2.191330909729004,
				-1.4584438800811768,
				-0.2114182561635971
			],
			"min":[
				2.09967041015625,
				-2.241046667098999,
				-0.9905798435211182
			],
			"type":"VEC3"
		},
		{
			"bufferView":18,
			"componentType":5126,
			"count":18,
			"type":"VEC3"
		},
		{
			"bufferView":19,
			"componentType":5126,
			"count":18,
			"type":"VEC2"
		},
		{
			"bufferView":20,
			"componentType":5126,
			"count":18,
			"type":"VEC4"
		},
		{
			"bufferView":21,
			"componentType":5123,
			"count":48,
			"type":"SCALAR"
		},
		{
			"bufferView":22,
			"componentType":5126,
			"count":1046,
			"max":[
				1.898749828338623,
				-0.8307745456695557,
				0.4355953335762024
			],
			"min":[
				1.634570598602295,
				-2.829638719558716,
				-1.5561349391937256
			],
			"type":"VEC3"
		},
		{
			"bufferView":23,
			"componentType":5126,
			"count":1046,
			"type":"VEC3"
		},
		{
			"bufferView":24,
			"componentType":5126,
			"count":1046,
			"type":"VEC2"
		},
		{
			"bufferView":25,
			"componentType":5126,
			"count":1046,
			"type":"VEC4"
		},
		{
			"bufferView":26,
			"componentType":5123,
			"count":2136,
			"type":"SCALAR"
		},
		{
			"bufferView":27,
			"componentType":5126,
			"count":1632,
			"max":[
				2.437669038772583,
				2.8312549591064453,
				0.4653691351413727
			],
			"min":[
				1.2987549304962158,
				0.8312540054321289,
				-1.587241768836975
			],
			"type":"VEC3"
		},
		{
			"bufferView":28,
			"componentType":5126,
			"count":1632,
			"type":"VEC3"
		},
		{
			"bufferView":29,
			"componentType":5126,
			"count":1632,
			"type":"VEC2"
		},
		{
			"bufferView":30,
			"componentType":5126,
			"count":1632,
			"type":"VEC4"
		},
		{
			"bufferView":31,
			"componentType":5123,
			"count":3108,
			"type":"SCALAR"
		},
		{
			"bufferView":32,
			"componentType":5126,
			"count":18,
			"max":[
				2.277026653289795,
				2.2230758666992188,
				-0.19783957302570343
			],
			"min":[
				2.220127582550049,
				1.439432144165039,
				-0.9794145822525024
			],
			"type":"VEC3"
		},
		{
			"bufferView":33,
			"componentType":5126,
			"count":18,
			"type":"VEC3"
		},
		{
			"bufferView":34,
			"componentType":5126,
			"count":18,
			"type":"VEC2"
		},
		{
			"bufferView":35,
			"componentType":5126,
			"count":18,
			"type":"VEC4"
		},
		{
			"bufferView":36,
			"componentType":5123,
			"count":48,
			"type":"SCALAR"
		},
		{
			"bufferView":37,
			"componentType":5126,
			"count":1051,
			"max":[
				1.9556173086166382,
				2.8312549591064453,
				0.43750128149986267
			],
			"min":[
				1.780806303024292,
				0.8312540054321289,
				-1.5593740940093994
			],
			"type":"VEC3"
		},
		{
			"bufferView":38,
			"componentType":5126,
			"count":1051,
			"type":"VEC3"
		},
		{
			"bufferView":39,
			"componentType":5126,
			"count":1051,
			"type":"VEC2"
		},
		{
			"bufferView":40,
			"componentType":5126,
			"count":1051,
			"type":"VEC4"
		},
		{
			"bufferView":41,
			"componentType":5123,
			"count":2136,
			"type":"SCALAR"
		},
		{
			"bufferView":42,
			"componentType":5126,
			"count":1632,
			"max":[
				-1.1716020107269287,
				-0.8111108541488647,
				0.4765847325325012
			],
			"min":[
				-2.3617184162139893,
				-2.849302291870117,
				-1.5971245765686035
			],
			"type":"VEC3"
		},
		{
			"bufferView":43,
			"componentType":5126,
			"count":1632,
			"type":"VEC3"
		},
		{
			"bufferView":44,
			"componentType":5126,
			"count":1632,
			"type":"VEC2"
		},
		{
			"bufferView":45,
			"componentType":5126,
			"count":1632,
			"type":"VEC4"
		},
		{
			"bufferView":46,
			"componentType":5123,
			"count":3108,
			"type":"SCALAR"
		},
		{
			"bufferView":47,
			"componentType":5126,
			"count":18,
			"max":[
				-2.09967041015625,
				-1.4584438800811768,
				-0.2114182561635971
			],
			"min":[
				-2.191330909729004,
				-2.241046667098999,
				-0.9905798435211182
			],
			"type":"VEC3"
		},
		{
			"bufferView":48,
			"componentType":5126,
			"count":18,
			"type":"VEC3"
		},
		{
			"bufferView":49,
			"componentType":5126,
			"count":18,
			"type":"VEC2"
		},
		{
			"bufferView":50,
			"componentType":5126,
			"count":18,
			"type":"VEC4"
		},
		{
			"bufferView":51,
			"componentType":5126,
			"count":1046,
			"max":[
				-1.634570598602295,
				-0.8307745456695557,
				0.4355953335762024
			],
			"min":[
				-1.898749828338623,
				-2.829638719558716,
				-1.5561349391937256
			],
			"type":"VEC3"
		},
		{
			"bufferView":52,
			"componentType":5126,
			"count":1046,
			"type":"VEC3"
		},
		{
			"bufferView":53,
			"componentType":5126,
			"count":1046,
			"type":"VEC2"
		},
		{
			"bufferView":54,
			"componentType":5126,
			"count":1046,
			"type":"VEC4"
		},
		{
			"bufferView":55,
			"componentType":5123,
			"count":2136,
			"type":"SCALAR"
		},
		{
			"bufferView":56,
			"componentType":5126,
			"count":1632,
			"max":[
				-1.2987549304962158,
				2.8312549591064453,
				0.4653691351413727
			],
			"min":[
				-2.437669038772583,
				0.8312540054321289,
				-1.587241768836975
			],
			"type":"VEC3"
		},
		{
			"bufferView":57,
			"componentType":5126,
			"count":1632,
			"type":"VEC3"
		},
		{
			"bufferView":58,
			"componentType":5126,
			"count":1632,
			"type":"VEC2"
		},
		{
			"bufferView":59,
			"componentType":5126,
			"count":1632,
			"type":"VEC4"
		},
		{
			"bufferView":60,
			"componentType":5123,
			"count":3108,
			"type":"SCALAR"
		},
		{
			"bufferView":61,
			"componentType":5126,
			"count":18,
			"max":[
				-2.220127582550049,
				2.2230758666992188,
				-0.19783957302570343
			],
			"min":[
				-2.277026653289795,
				1.439432144165039,
				-0.9794145822525024
			],
			"type":"VEC3"
		},
		{
			"bufferView":62,
			"componentType":5126,
			"count":18,
			"type":"VEC3"
		},
		{
			"bufferView":63,
			"componentType":5126,
			"count":18,
			"type":"VEC2"
		},
		{
			"bufferView":64,
			"componentType":5126,
			"count":18,
			"type":"VEC4"
		},
		{
			"bufferView":65,
			"componentType":5126,
			"count":1047,
			"max":[
				-1.780806303024292,
				2.8312549591064453,
				0.43750128149986267
			],
			"min":[
				-1.9556173086166382,
				0.8312540054321289,
				-1.5593740940093994
			],
			"type":"VEC3"
		},
		{
			"bufferView":66,
			"componentType":5126,
			"count":1047,
			"type":"VEC3"
		},
		{
			"bufferView":67,
			"componentType":5126,
			"count":1047,
			"type":"VEC2"
		},
		{
			"bufferView":68,
			"componentType":5126,
			"count":1047,
			"type":"VEC4"
		},
		{
			"bufferView":69,
			"componentType":5123,
			"count":2136,
			"type":"SCALAR"
		}
	],
	"bufferViews":[
		{
			"buffer":0,
			"byteLength":9012,
			"byteOffset":0,
			"target":34962
		},
		{
			"buffer":0,
			"byteLength":9012,
			"byteOffset":9012,
			"target":34962
		},
		{
			"buffer":0,
			"byteLength":6008,
			"byteOffset":18024,
			"target":34962
		},
		{
			"buffer":0,
			"byteLength":4050,
			"byteOffset":24032,
			"target":34963
		},
		{
			"buffer":0,
			"byteLength":336,
			"byteOffset":28084,
			"target":34962
		},
		{
			"buffer":0,
			"byteLength":336,
			"byteOffset":28420,
			"target":34962
		},
		{
			"buffer":0,
			"byteLength":224,
			"byteOffset":28756,
			"target":34962
		},
		{
			"buffer":0,
			"byteLength":84,
			"byteOffset":28980,
			"target":34963
		},
		{
			"buffer":0,
			"byteLength":122016,
			"byteOffset":29064,
			"target":34962
		},
		{
			"buffer":0,
			"byteLength":122016,
			"byteOffset":151080,
			"target":34962
		},
		{
			"buffer":0,
			"byteLength":81344,
			"byteOffset":273096,
			"target":34962
		},
		{
			"buffer":0,
			"byteLength":89544,
			"byteOffset":354440,
			"target":34963
		},
		{
			"buffer":0,
			"byteLength":19584,
			"byteOffset":443984,
			"target":34962
		},
		{
			"buffer":0,
			"byteLength":19584,
			"byteOffset":463568,
			"target":34962
		},
		{
			"buffer":0,
			"byteLength":13056,
			"byteOffset":483152,
			"target":34962
		},
		{
			"buffer":0,
			"byteLength":26112,
			"byteOffset":496208,
			"target":34962
		},
		{
			"buffer":0,
			"byteLength":6216,
			"byteOffset":522320,
			"target":34963
		},
		{
			"buffer":0,
			"byteLength":216,
			"byteOffset":528536,
			"target":34962
		},
		{
			"buffer":0,
			"byteLength":216,
			"byteOffset":528752,
			"target":34962
		},
		{
			"buffer":0,
			"byteLength":144,
			"byteOffset":528968,
			"target":34962
		},
		{
			"buffer":0,
			"byteLength":288,
			"byteOffset":529112,
			"target":34962
		},
		{
			"buffer":0,
			"byteLength":96,
			"byteOffset":529400,
			"target":34963
		},
		{
			"buffer":0,
			"byteLength":12552,
			"byteOffset":529496,
			"target":34962
		},
		{
			"buffer":0,
			"byteLength":12552,
			"byteOffset":542048,
			"target":34962
		},
		{
			"buffer":0,
			"byteLength":8368,
			"byteOffset":554600,
			"target":34962
		},
		{
			"buffer":0,
			"byteLength":16736,
			"byteOffset":562968,
			"target":34962
		},
		{
			"buffer":0,
			"byteLength":4272,
			"byteOffset":579704,
			"target":34963
		},
		{
			"buffer":0,
			"byteLength":19584,
			"byteOffset":583976,
			"target":34962
		},
		{
			"buffer":0,
			"byteLength":19584,
			"byteOffset":603560,
			"target":34962
		},
		{
			"buffer":0,
			"byteLength":13056,
			"byteOffset":623144,
			"target":34962
		},
		{
			"buffer":0,
			"byteLength":26112,
			"byteOffset":636200,
			"target":34962
		},
		{
			"buffer":0,
			"byteLength":6216,
			"byteOffset":662312,
			"target":34963
		},
		{
			"buffer":0,
			"byteLength":216,
			"byteOffset":668528,
			"target":34962
		},
		{
			"buffer":0,
			"byteLength":216,
			"byteOffset":668744,
			"target":34962
		},
		{
			"buffer":0,
			"byteLength":144,
			"byteOffset":668960,
			"target":34962
		},
		{
			"buffer":0,
			"byteLength":288,
			"byteOffset":669104,
			"target":34962
		},
		{
			"buffer":0,
			"byteLength":96,
			"byteOffset":669392,
			"target":34963
		},
		{
			"buffer":0,
			"byteLength":12612,
			"byteOffset":669488,
			"target":34962
		},
		{
			"buffer":0,
			"byteLength":12612,
			"byteOffset":682100,
			"target":34962
		},
		{
			"buffer":0,
			"byteLength":8408,
			"byteOffset":694712,
			"target":34962
		},
		{
			"buffer":0,
			"byteLength":16816,
			"byteOffset":703120,
			"target":34962
		},
		{
			"buffer":0,
			"byteLength":4272,
			"byteOffset":719936,
			"target":34963
		},
		{
			"buffer":0,
			"byteLength":19584,
			"byteOffset":724208,
			"target":34962
		},
		{
			"buffer":0,
			"byteLength":19584,
			"byteOffset":743792,
			"target":34962
		},
		{
			"buffer":0,
			"byteLength":13056,
			"byteOffset":763376,
			"target":34962
		},
		{
			"buffer":0,
			"byteLength":26112,
			"byteOffset":776432,
			"target":34962
		},
		{
			"buffer":0,
			"byteLength":6216,
			"byteOffset":802544,
			"target":34963
		},
		{
			"buffer":0,
			"byteLength":216,
			"byteOffset":808760,
			"target":34962
		},
		{
			"buffer":0,
			"byteLength":216,
			"byteOffset":808976,
			"target":34962
		},
		{
			"buffer":0,
			"byteLength":144,
			"byteOffset":809192,
			"target":34962
		},
		{
			"buffer":0,
			"byteLength":288,
			"byteOffset":809336,
			"target":34962
		},
		{
			"buffer":0,
			"byteLength":12552,
			"byteOffset":809624,
			"target":34962
		},
		{
			"buffer":0,
			"byteLength":12552,
			"byteOffset":822176,
			"target":34962
		},
		{
			"buffer":0,
			"byteLength":8368,
			"byteOffset":834728,
			"target":34962
		},
		{
			"buffer":0,
			"byteLength":16736,
			"byteOffset":843096,
			"target":34962
		},
		{
			"buffer":0,
			"byteLength":4272,
			"byteOffset":859832,
			"target":34963
		},
		{
			"buffer":0,
			"byteLength":19584,
			"byteOffset":864104,
			"target":34962
		},
		{
			"buffer":0,
			"byteLength":19584,
			"byteOffset":883688,
			"target":34962
		},
		{
			"buffer":0,
			"byteLength":13056,
			"byteOffset":903272,
			"target":34962
		},
		{
			"buffer":0,
			"byteLength":26112,
			"byteOffset":916328,
			"target":34962
		},
		{
			"buffer":0,
			"byteLength":6216,
			"byteOffset":942440,
			"target":34963
		},
		{
			"buffer":0,
			"byteLength":216,
			"byteOffset":948656,
			"target":34962
		},
		{
			"buffer":0,
			"byteLength":216,
			"byteOffset":948872,
			"target":34962
		},
		{
			"buffer":0,
			"byteLength":144,
			"byteOffset":949088,
			"target":34962
		},
		{
			"buffer":0,
			"byteLength":288,
			"byteOffset":949232,
			"target":34962
		},
		{
			"buffer":0,
			"byteLength":12564,
			"byteOffset":949520,
			"target":34962
		},
		{
			"buffer":0,
			"byteLength":12564,
			"byteOffset":962084,
			"target":34962
		},
		{
			"buffer":0,
			"byteLength":8376,
			"byteOffset":974648,
			"target":34962
		},
		{
			"buffer":0,
			"byteLength":16752,
			"byteOffset":983024,
			"target":34962
		},
		{
			"buffer":0,
			"byteLength":4272,
			"byteOffset":999776,
			"target":34963
		}
	],
	"buffers":[
		{
			"byteLength":1004048,
			"uri":"Car_Model-982d2546940f778267e68695aa844a28.bin"
		}
	]
}
