{
	"asset":{
		"generator":"Khronos glTF Blender I/O v3.6.27",
		"version":"2.0"
	},
	"extensionsUsed":[
		"KHR_materials_unlit",
		"KHR_materials_specular",
		"KHR_materials_ior"
	],
	"scene":0,
	"scenes":[
		{
			"name":"Scene",
			"nodes":[
				0,
				1,
				2,
				3,
				4
			]
		}
	],
	"nodes":[
		{
			"mesh":0,
			"name":"Main Body",
			"rotation":[
				0.70710688829422,
				0,
				0,
				0.7071066498756409
			]
		},
		{
			"mesh":1,
			"name":"Wheel_BL",
			"rotation":[
				0.3416975140571594,
				-0.014918835833668709,
				-0.040988773107528687,
				0.9387972950935364
			],
			"translation":[
				-1.7822891473770142,
				0.5346434712409973,
				1.8249094486236572
			]
		},
		{
			"mesh":2,
			"name":"Wheel_BL.001",
			"rotation":[
				0.3416975140571594,
				0.014918836764991283,
				0.040988773107528687,
				0.9387972950935364
			],
			"translation":[
				1.8200085163116455,
				0.5346434712409973,
				1.8249094486236572
			]
		},
		{
			"mesh":3,
			"name":"Wheel_BL.002",
			"rotation":[
				0.3416975140571594,
				0.014918836764991283,
				0.040988773107528687,
				0.9387972950935364
			],
			"translation":[
				1.750008463859558,
				0.5346434712409973,
				-1.8750905990600586
			]
		},
		{
			"mesh":4,
			"name":"Wheel_BL.003",
			"rotation":[
				0.3411898910999298,
				-0.023858318105340004,
				-0.0655495673418045,
				0.9374025464057922
			],
			"translation":[
				-1.7122890949249268,
				0.5346434712409973,
				-1.8750905990600586
			]
		}
	],
	"materials":[
		{
			"doubleSided":true,
			"extensions":{
				"KHR_materials_unlit":{}
			},
			"name":"Body Color",
			"pbrMetallicRoughness":{
				"metallicFactor":0,
				"roughnessFactor":0.9
			}
		},
		{
			"doubleSided":true,
			"extensions":{
				"KHR_materials_specular":{
					"specularColorFactor":[
						2.371357614441398,
						2.371357614441398,
						2.371357614441398
					]
				},
				"KHR_materials_ior":{
					"ior":1.4500000476837158
				}
			},
			"name":"Glass Color",
			"pbrMetallicRoughness":{
				"baseColorFactor":[
					0,
					0,
					0,
					1
				],
				"metallicFactor":0,
				"roughnessFactor":0
			}
		},
		{
			"doubleSided":true,
			"extensions":{
				"KHR_materials_specular":{
					"specularColorFactor":[
						2.371357614441398,
						2.371357614441398,
						2.371357614441398
					]
				},
				"KHR_materials_ior":{
					"ior":1.4500000476837158
				}
			},
			"name":"Pipe Color",
			"pbrMetallicRoughness":{
				"baseColorFactor":[
					0,
					0,
					0,
					1
				]
			}
		},
		{
			"doubleSided":true,
			"name":"Wheels Color",
			"pbrMetallicRoughness":{
				"baseColorFactor":[
					0.0012141057522967458,
					0.00151763332542032,
					0.001821161713451147,
					1
				],
				"metallicFactor":0
			}
		},
		{
			"doubleSided":true,
			"name":"Wheels Inside Color",
			"pbrMetallicRoughness":{
				"baseColorFactor":[
					0.0012141057522967458,
					0.00151763332542032,
					0.001821161713451147,
					1
				],
				"metallicFactor":0,
				"roughnessFactor":0.9591742753982544
			}
		},
		{
			"doubleSided":true,
			"extensions":{
				"KHR_materials_specular":{
					"specularColorFactor":[
						0.7614450420146462,
						0.7614450420146462,
						0.7614450420146462
					]
				},
				"KHR_materials_ior":{
					"ior":1.4500000476837158
				}
			},
			"name":"Material.001",
			"pbrMetallicRoughness":{
				"baseColorFactor":[
					0,
					0,
					0,
					1
				],
				"metallicFactor":0
			}
		}
	],
	"meshes":[
		{
			"name":"Creo Dift Car TURNIN",
			"primitives":[
				{
					"attributes":{
						"POSITION":0,
						"NORMAL":1,
						"TEXCOORD_0":2
					},
					"indices":3,
					"material":0
				},
				{
					"attributes":{
						"POSITION":4,
						"NORMAL":5,
						"TEXCOORD_0":6
					},
					"indices":7,
					"material":1
				},
				{
					"attributes":{
						"POSITION":8,
						"NORMAL":9,
						"TEXCOORD_0":10
					},
					"indices":11,
					"material":2
				}
			]
		},
		{
			"name":"Creo Dift Car TURNIN.010",
			"primitives":[
				{
					"attributes":{
						"POSITION":12,
						"NORMAL":13,
						"TEXCOORD_0":14,
						"TANGENT":15
					},
					"indices":16,
					"material":3
				},
				{
					"attributes":{
						"POSITION":17,
						"NORMAL":18,
						"TEXCOORD_0":19,
						"TANGENT":20
					},
					"indices":21,
					"material":4
				},
				{
					"attributes":{
						"POSITION":22,
						"NORMAL":23,
						"TEXCOORD_0":24,
						"TANGENT":25
					},
					"indices":26,
					"material":5
				}
			]
		},
		{
			"name":"Creo Dift Car TURNIN.001",
			"primitives":[
				{
					"attributes":{
						"POSITION":27,
						"NORMAL":28,
						"TEXCOORD_0":29,
						"TANGENT":30
					},
					"indices":16,
					"material":3
				},
				{
					"attributes":{
						"POSITION":31,
						"NORMAL":32,
						"TEXCOORD_0":33,
						"TANGENT":34
					},
					"indices":21,
					"material":4
				},
				{
					"attributes":{
						"POSITION":35,
						"NORMAL":36,
						"TEXCOORD_0":37,
						"TANGENT":38
					},
					"indices":26,
					"material":5
				}
			]
		},
		{
			"name":"Creo Dift Car TURNIN.002",
			"primitives":[
				{
					"attributes":{
						"POSITION":39,
						"NORMAL":40,
						"TEXCOORD_0":41,
						"TANGENT":42
					},
					"indices":16,
					"material":3
				},
				{
					"attributes":{
						"POSITION":43,
						"NORMAL":44,
						"TEXCOORD_0":45,
						"TANGENT":46
					},
					"indices":21,
					"material":4
				},
				{
					"attributes":{
						"POSITION":47,
						"NORMAL":48,
						"TEXCOORD_0":49,
						"TANGENT":50
					},
					"indices":26,
					"material":5
				}
			]
		},
		{
			"name":"Creo Dift Car TURNIN.003",
			"primitives":[
				{
					"attributes":{
						"POSITION":51,
						"NORMAL":52,
						"TEXCOORD_0":53,
						"TANGENT":54
					},
					"indices":16,
					"material":3
				},
				{
					"attributes":{
						"POSITION":55,
						"NORMAL":56,
						"TEXCOORD_0":57,
						"TANGENT":58
					},
					"indices":21,
					"material":4
				},
				{
					"attributes":{
						"POSITION":59,
						"NORMAL":60,
						"TEXCOORD_0":61,
						"TANGENT":62
					},
					"indices":26,
					"material":5
				}
			]
		}
	],
	"accessors":[
		{
			"bufferView":0,
			"componentType":5126,
			"count":751,
			"max":[
				1.626689076423645,
				3.48842191696167,
				-0.14715415239334106
			],
			"min":[
				-1.6338658332824707,
				-3.3340444564819336,
				-2.2188780307769775
			],
			"type":"VEC3"
		},
		{
			"bufferView":1,
			"componentType":5126,
			"count":751,
			"type":"VEC3"
		},
		{
			"bufferView":2,
			"componentType":5126,
			"count":751,
			"type":"VEC2"
		},
		{
			"bufferView":3,
			"componentType":5123,
			"count":2025,
			"type":"SCALAR"
		},
		{
			"bufferView":4,
			"componentType":5126,
			"count":28,
			"max":[
				1.208665132522583,
				1.249943733215332,
				-1.1549872159957886
			],
			"min":[
				-1.1672008037567139,
				-2.8680648803710938,
				-2.0331871509552
			],
			"type":"VEC3"
		},
		{
			"bufferView":5,
			"componentType":5126,
			"count":28,
			"type":"VEC3"
		},
		{
			"bufferView":6,
			"componentType":5126,
			"count":28,
			"type":"VEC2"
		},
		{
			"bufferView":7,
			"componentType":5123,
			"count":42,
			"type":"SCALAR"
		},
		{
			"bufferView":8,
			"componentType":5126,
			"count":10168,
			"max":[
				1.4490290880203247,
				2.7980823516845703,
				0.0004908436676487327
			],
			"min":[
				-1.3722407817840576,
				-3.2878332138061523,
				-0.6392521858215332
			],
			"type":"VEC3"
		},
		{
			"bufferView":9,
			"componentType":5126,
			"count":10168,
			"type":"VEC3"
		},
		{
			"bufferView":10,
			"componentType":5126,
			"count":10168,
			"type":"VEC2"
		},
		{
			"bufferView":11,
			"componentType":5123,
			"count":44772,
			"type":"SCALAR"
		},
		{
			"bufferView":12,
			"componentType":5126,
			"count":1632,
			"max":[
				0.5271496772766113,
				1.0120890140533447,
				1.007197618484497
			],
			"min":[
				-0.527678370475769,
				-0.9902867674827576,
				-0.9928034543991089
			],
			"type":"VEC3"
		},
		{
			"bufferView":13,
			"componentType":5126,
			"count":1632,
			"type":"VEC3"
		},
		{
			"bufferView":14,
			"componentType":5126,
			"count":1632,
			"type":"VEC2"
		},
		{
			"bufferView":15,
			"componentType":5126,
			"count":1632,
			"type":"VEC4"
		},
		{
			"bufferView":16,
			"componentType":5123,
			"count":3108,
			"type":"SCALAR"
		},
		{
			"bufferView":17,
			"componentType":5126,
			"count":18,
			"max":[
				-0.3804627060890198,
				0.4015803635120392,
				0.3990185260772705
			],
			"min":[
				-0.3828062415122986,
				-0.38205960392951965,
				-0.3846251964569092
			],
			"type":"VEC3"
		},
		{
			"bufferView":18,
			"componentType":5126,
			"count":18,
			"type":"VEC3"
		},
		{
			"bufferView":19,
			"componentType":5126,
			"count":18,
			"type":"VEC2"
		},
		{
			"bufferView":20,
			"componentType":5126,
			"count":18,
			"type":"VEC4"
		},
		{
			"bufferView":21,
			"componentType":5123,
			"count":48,
			"type":"SCALAR"
		},
		{
			"bufferView":22,
			"componentType":5126,
			"count":1050,
			"max":[
				0.017560817301273346,
				1.010941743850708,
				1.007197618484497
			],
			"min":[
				-0.018089577555656433,
				-0.9891394972801208,
				-0.9928034543991089
			],
			"type":"VEC3"
		},
		{
			"bufferView":23,
			"componentType":5126,
			"count":1050,
			"type":"VEC3"
		},
		{
			"bufferView":24,
			"componentType":5126,
			"count":1050,
			"type":"VEC2"
		},
		{
			"bufferView":25,
			"componentType":5126,
			"count":1050,
			"type":"VEC4"
		},
		{
			"bufferView":26,
			"componentType":5123,
			"count":2136,
			"type":"SCALAR"
		},
		{
			"bufferView":27,
			"componentType":5126,
			"count":1632,
			"max":[
				0.5271496772766113,
				1.0120890140533447,
				1.007197618484497
			],
			"min":[
				-0.527678370475769,
				-0.9902867674827576,
				-0.9928034543991089
			],
			"type":"VEC3"
		},
		{
			"bufferView":28,
			"componentType":5126,
			"count":1632,
			"type":"VEC3"
		},
		{
			"bufferView":29,
			"componentType":5126,
			"count":1632,
			"type":"VEC2"
		},
		{
			"bufferView":30,
			"componentType":5126,
			"count":1632,
			"type":"VEC4"
		},
		{
			"bufferView":31,
			"componentType":5126,
			"count":18,
			"max":[
				-0.3804627060890198,
				0.4015803635120392,
				0.3990185260772705
			],
			"min":[
				-0.3828062415122986,
				-0.38205960392951965,
				-0.3846251964569092
			],
			"type":"VEC3"
		},
		{
			"bufferView":32,
			"componentType":5126,
			"count":18,
			"type":"VEC3"
		},
		{
			"bufferView":33,
			"componentType":5126,
			"count":18,
			"type":"VEC2"
		},
		{
			"bufferView":34,
			"componentType":5126,
			"count":18,
			"type":"VEC4"
		},
		{
			"bufferView":35,
			"componentType":5126,
			"count":1050,
			"max":[
				0.017560817301273346,
				1.010941743850708,
				1.007197618484497
			],
			"min":[
				-0.018089577555656433,
				-0.9891394972801208,
				-0.9928034543991089
			],
			"type":"VEC3"
		},
		{
			"bufferView":36,
			"componentType":5126,
			"count":1050,
			"type":"VEC3"
		},
		{
			"bufferView":37,
			"componentType":5126,
			"count":1050,
			"type":"VEC2"
		},
		{
			"bufferView":38,
			"componentType":5126,
			"count":1050,
			"type":"VEC4"
		},
		{
			"bufferView":39,
			"componentType":5126,
			"count":1632,
			"max":[
				0.5271496772766113,
				1.0120890140533447,
				1.007197618484497
			],
			"min":[
				-0.527678370475769,
				-0.9902867674827576,
				-0.9928034543991089
			],
			"type":"VEC3"
		},
		{
			"bufferView":40,
			"componentType":5126,
			"count":1632,
			"type":"VEC3"
		},
		{
			"bufferView":41,
			"componentType":5126,
			"count":1632,
			"type":"VEC2"
		},
		{
			"bufferView":42,
			"componentType":5126,
			"count":1632,
			"type":"VEC4"
		},
		{
			"bufferView":43,
			"componentType":5126,
			"count":18,
			"max":[
				-0.3804627060890198,
				0.4015803635120392,
				0.3990185260772705
			],
			"min":[
				-0.3828062415122986,
				-0.38205960392951965,
				-0.3846251964569092
			],
			"type":"VEC3"
		},
		{
			"bufferView":44,
			"componentType":5126,
			"count":18,
			"type":"VEC3"
		},
		{
			"bufferView":45,
			"componentType":5126,
			"count":18,
			"type":"VEC2"
		},
		{
			"bufferView":46,
			"componentType":5126,
			"count":18,
			"type":"VEC4"
		},
		{
			"bufferView":47,
			"componentType":5126,
			"count":1050,
			"max":[
				0.017560817301273346,
				1.010941743850708,
				1.007197618484497
			],
			"min":[
				-0.018089577555656433,
				-0.9891394972801208,
				-0.9928034543991089
			],
			"type":"VEC3"
		},
		{
			"bufferView":48,
			"componentType":5126,
			"count":1050,
			"type":"VEC3"
		},
		{
			"bufferView":49,
			"componentType":5126,
			"count":1050,
			"type":"VEC2"
		},
		{
			"bufferView":50,
			"componentType":5126,
			"count":1050,
			"type":"VEC4"
		},
		{
			"bufferView":51,
			"componentType":5126,
			"count":1632,
			"max":[
				0.5271496772766113,
				1.0120890140533447,
				1.007197618484497
			],
			"min":[
				-0.527678370475769,
				-0.9902867674827576,
				-0.9928034543991089
			],
			"type":"VEC3"
		},
		{
			"bufferView":52,
			"componentType":5126,
			"count":1632,
			"type":"VEC3"
		},
		{
			"bufferView":53,
			"componentType":5126,
			"count":1632,
			"type":"VEC2"
		},
		{
			"bufferView":54,
			"componentType":5126,
			"count":1632,
			"type":"VEC4"
		},
		{
			"bufferView":55,
			"componentType":5126,
			"count":18,
			"max":[
				-0.3804627060890198,
				0.4015803635120392,
				0.3990185260772705
			],
			"min":[
				-0.3828062415122986,
				-0.38205960392951965,
				-0.3846251964569092
			],
			"type":"VEC3"
		},
		{
			"bufferView":56,
			"componentType":5126,
			"count":18,
			"type":"VEC3"
		},
		{
			"bufferView":57,
			"componentType":5126,
			"count":18,
			"type":"VEC2"
		},
		{
			"bufferView":58,
			"componentType":5126,
			"count":18,
			"type":"VEC4"
		},
		{
			"bufferView":59,
			"componentType":5126,
			"count":1050,
			"max":[
				0.017560817301273346,
				1.010941743850708,
				1.007197618484497
			],
			"min":[
				-0.018089577555656433,
				-0.9891394972801208,
				-0.9928034543991089
			],
			"type":"VEC3"
		},
		{
			"bufferView":60,
			"componentType":5126,
			"count":1050,
			"type":"VEC3"
		},
		{
			"bufferView":61,
			"componentType":5126,
			"count":1050,
			"type":"VEC2"
		},
		{
			"bufferView":62,
			"componentType":5126,
			"count":1050,
			"type":"VEC4"
		}
	],
	"bufferViews":[
		{
			"buffer":0,
			"byteLength":9012,
			"byteOffset":0,
			"target":34962
		},
		{
			"buffer":0,
			"byteLength":9012,
			"byteOffset":9012,
			"target":34962
		},
		{
			"buffer":0,
			"byteLength":6008,
			"byteOffset":18024,
			"target":34962
		},
		{
			"buffer":0,
			"byteLength":4050,
			"byteOffset":24032,
			"target":34963
		},
		{
			"buffer":0,
			"byteLength":336,
			"byteOffset":28084,
			"target":34962
		},
		{
			"buffer":0,
			"byteLength":336,
			"byteOffset":28420,
			"target":34962
		},
		{
			"buffer":0,
			"byteLength":224,
			"byteOffset":28756,
			"target":34962
		},
		{
			"buffer":0,
			"byteLength":84,
			"byteOffset":28980,
			"target":34963
		},
		{
			"buffer":0,
			"byteLength":122016,
			"byteOffset":29064,
			"target":34962
		},
		{
			"buffer":0,
			"byteLength":122016,
			"byteOffset":151080,
			"target":34962
		},
		{
			"buffer":0,
			"byteLength":81344,
			"byteOffset":273096,
			"target":34962
		},
		{
			"buffer":0,
			"byteLength":89544,
			"byteOffset":354440,
			"target":34963
		},
		{
			"buffer":0,
			"byteLength":19584,
			"byteOffset":443984,
			"target":34962
		},
		{
			"buffer":0,
			"byteLength":19584,
			"byteOffset":463568,
			"target":34962
		},
		{
			"buffer":0,
			"byteLength":13056,
			"byteOffset":483152,
			"target":34962
		},
		{
			"buffer":0,
			"byteLength":26112,
			"byteOffset":496208,
			"target":34962
		},
		{
			"buffer":0,
			"byteLength":6216,
			"byteOffset":522320,
			"target":34963
		},
		{
			"buffer":0,
			"byteLength":216,
			"byteOffset":528536,
			"target":34962
		},
		{
			"buffer":0,
			"byteLength":216,
			"byteOffset":528752,
			"target":34962
		},
		{
			"buffer":0,
			"byteLength":144,
			"byteOffset":528968,
			"target":34962
		},
		{
			"buffer":0,
			"byteLength":288,
			"byteOffset":529112,
			"target":34962
		},
		{
			"buffer":0,
			"byteLength":96,
			"byteOffset":529400,
			"target":34963
		},
		{
			"buffer":0,
			"byteLength":12600,
			"byteOffset":529496,
			"target":34962
		},
		{
			"buffer":0,
			"byteLength":12600,
			"byteOffset":542096,
			"target":34962
		},
		{
			"buffer":0,
			"byteLength":8400,
			"byteOffset":554696,
			"target":34962
		},
		{
			"buffer":0,
			"byteLength":16800,
			"byteOffset":563096,
			"target":34962
		},
		{
			"buffer":0,
			"byteLength":4272,
			"byteOffset":579896,
			"target":34963
		},
		{
			"buffer":0,
			"byteLength":19584,
			"byteOffset":584168,
			"target":34962
		},
		{
			"buffer":0,
			"byteLength":19584,
			"byteOffset":603752,
			"target":34962
		},
		{
			"buffer":0,
			"byteLength":13056,
			"byteOffset":623336,
			"target":34962
		},
		{
			"buffer":0,
			"byteLength":26112,
			"byteOffset":636392,
			"target":34962
		},
		{
			"buffer":0,
			"byteLength":216,
			"byteOffset":662504,
			"target":34962
		},
		{
			"buffer":0,
			"byteLength":216,
			"byteOffset":662720,
			"target":34962
		},
		{
			"buffer":0,
			"byteLength":144,
			"byteOffset":662936,
			"target":34962
		},
		{
			"buffer":0,
			"byteLength":288,
			"byteOffset":663080,
			"target":34962
		},
		{
			"buffer":0,
			"byteLength":12600,
			"byteOffset":663368,
			"target":34962
		},
		{
			"buffer":0,
			"byteLength":12600,
			"byteOffset":675968,
			"target":34962
		},
		{
			"buffer":0,
			"byteLength":8400,
			"byteOffset":688568,
			"target":34962
		},
		{
			"buffer":0,
			"byteLength":16800,
			"byteOffset":696968,
			"target":34962
		},
		{
			"buffer":0,
			"byteLength":19584,
			"byteOffset":713768,
			"target":34962
		},
		{
			"buffer":0,
			"byteLength":19584,
			"byteOffset":733352,
			"target":34962
		},
		{
			"buffer":0,
			"byteLength":13056,
			"byteOffset":752936,
			"target":34962
		},
		{
			"buffer":0,
			"byteLength":26112,
			"byteOffset":765992,
			"target":34962
		},
		{
			"buffer":0,
			"byteLength":216,
			"byteOffset":792104,
			"target":34962
		},
		{
			"buffer":0,
			"byteLength":216,
			"byteOffset":792320,
			"target":34962
		},
		{
			"buffer":0,
			"byteLength":144,
			"byteOffset":792536,
			"target":34962
		},
		{
			"buffer":0,
			"byteLength":288,
			"byteOffset":792680,
			"target":34962
		},
		{
			"buffer":0,
			"byteLength":12600,
			"byteOffset":792968,
			"target":34962
		},
		{
			"buffer":0,
			"byteLength":12600,
			"byteOffset":805568,
			"target":34962
		},
		{
			"buffer":0,
			"byteLength":8400,
			"byteOffset":818168,
			"target":34962
		},
		{
			"buffer":0,
			"byteLength":16800,
			"byteOffset":826568,
			"target":34962
		},
		{
			"buffer":0,
			"byteLength":19584,
			"byteOffset":843368,
			"target":34962
		},
		{
			"buffer":0,
			"byteLength":19584,
			"byteOffset":862952,
			"target":34962
		},
		{
			"buffer":0,
			"byteLength":13056,
			"byteOffset":882536,
			"target":34962
		},
		{
			"buffer":0,
			"byteLength":26112,
			"byteOffset":895592,
			"target":34962
		},
		{
			"buffer":0,
			"byteLength":216,
			"byteOffset":921704,
			"target":34962
		},
		{
			"buffer":0,
			"byteLength":216,
			"byteOffset":921920,
			"target":34962
		},
		{
			"buffer":0,
			"byteLength":144,
			"byteOffset":922136,
			"target":34962
		},
		{
			"buffer":0,
			"byteLength":288,
			"byteOffset":922280,
			"target":34962
		},
		{
			"buffer":0,
			"byteLength":12600,
			"byteOffset":922568,
			"target":34962
		},
		{
			"buffer":0,
			"byteLength":12600,
			"byteOffset":935168,
			"target":34962
		},
		{
			"buffer":0,
			"byteLength":8400,
			"byteOffset":947768,
			"target":34962
		},
		{
			"buffer":0,
			"byteLength":16800,
			"byteOffset":956168,
			"target":34962
		}
	],
	"buffers":[
		{
			"byteLength":972968,
			"uri":"Car_Model_2-d7f476744d175797a3b2c3e33af6d56f.bin"
		}
	]
}
