{
	"asset":{
		"generator":"Khronos glTF Blender I/O v3.6.27",
		"version":"2.0"
	},
	"extensionsUsed":[
		"KHR_materials_specular",
		"KHR_materials_ior"
	],
	"scene":0,
	"scenes":[
		{
			"name":"Scene",
			"nodes":[
				0
			]
		}
	],
	"nodes":[
		{
			"mesh":0,
			"name":"Sphere",
			"rotation":[
				0.7071068286895752,
				0,
				0,
				0.7071068286895752
			]
		}
	],
	"materials":[
		{
			"doubleSided":true,
			"extensions":{
				"KHR_materials_specular":{
					"specularColorFactor":[
						0,
						0,
						0
					]
				},
				"KHR_materials_ior":{
					"ior":1.4500000476837158
				}
			},
			"name":"Material.005",
			"pbrMetallicRoughness":{
				"baseColorFactor":[
					0.9130986332893372,
					0.48514947295188904,
					0.2232280671596527,
					1
				],
				"metallicFactor":0
			}
		},
		{
			"extensions":{
				"KHR_materials_specular":{
					"specularColorFactor":[
						0,
						0,
						0
					]
				},
				"KHR_materials_ior":{
					"ior":1.4500000476837158
				}
			},
			"name":"Outline",
			"pbrMetallicRoughness":{
				"baseColorFactor":[
					0,
					0,
					0,
					1
				],
				"metallicFactor":0
			}
		}
	],
	"meshes":[
		{
			"name":"Sphere",
			"primitives":[
				{
					"attributes":{
						"POSITION":0,
						"NORMAL":1,
						"TEXCOORD_0":2,
						"TANGENT":3
					},
					"indices":4,
					"material":0
				},
				{
					"attributes":{
						"POSITION":5,
						"NORMAL":6,
						"TEXCOORD_0":7,
						"TANGENT":8
					},
					"indices":9,
					"material":1
				}
			]
		}
	],
	"accessors":[
		{
			"bufferView":0,
			"componentType":5126,
			"count":746,
			"max":[
				0.6942639350891113,
				0.6478878855705261,
				0.49177613854408264
			],
			"min":[
				-0.5644028782844543,
				-0.6276696920394897,
				-0.5845942497253418
			],
			"type":"VEC3"
		},
		{
			"bufferView":1,
			"componentType":5126,
			"count":746,
			"type":"VEC3"
		},
		{
			"bufferView":2,
			"componentType":5126,
			"count":746,
			"type":"VEC2"
		},
		{
			"bufferView":3,
			"componentType":5126,
			"count":746,
			"type":"VEC4"
		},
		{
			"bufferView":4,
			"componentType":5123,
			"count":3870,
			"type":"SCALAR"
		},
		{
			"bufferView":5,
			"componentType":5126,
			"count":746,
			"max":[
				0.714260995388031,
				0.6675540208816528,
				0.5117499828338623
			],
			"min":[
				-0.5833969712257385,
				-0.6475970149040222,
				-0.6040830016136169
			],
			"type":"VEC3"
		},
		{
			"bufferView":6,
			"componentType":5126,
			"count":746,
			"type":"VEC3"
		},
		{
			"bufferView":7,
			"componentType":5126,
			"count":746,
			"type":"VEC2"
		},
		{
			"bufferView":8,
			"componentType":5126,
			"count":746,
			"type":"VEC4"
		},
		{
			"bufferView":9,
			"componentType":5123,
			"count":3870,
			"type":"SCALAR"
		}
	],
	"bufferViews":[
		{
			"buffer":0,
			"byteLength":8952,
			"byteOffset":0,
			"target":34962
		},
		{
			"buffer":0,
			"byteLength":8952,
			"byteOffset":8952,
			"target":34962
		},
		{
			"buffer":0,
			"byteLength":5968,
			"byteOffset":17904,
			"target":34962
		},
		{
			"buffer":0,
			"byteLength":11936,
			"byteOffset":23872,
			"target":34962
		},
		{
			"buffer":0,
			"byteLength":7740,
			"byteOffset":35808,
			"target":34963
		},
		{
			"buffer":0,
			"byteLength":8952,
			"byteOffset":43548,
			"target":34962
		},
		{
			"buffer":0,
			"byteLength":8952,
			"byteOffset":52500,
			"target":34962
		},
		{
			"buffer":0,
			"byteLength":5968,
			"byteOffset":61452,
			"target":34962
		},
		{
			"buffer":0,
			"byteLength":11936,
			"byteOffset":67420,
			"target":34962
		},
		{
			"buffer":0,
			"byteLength":7740,
			"byteOffset":79356,
			"target":34963
		}
	],
	"buffers":[
		{
			"byteLength":87096,
			"uri":"Dust_1-5cde17f38bff043f2afcf7905b3d6d71.bin"
		}
	]
}
