{
	"asset":{
		"generator":"Khronos glTF Blender I/O v3.6.27",
		"version":"2.0"
	},
	"scene":0,
	"scenes":[
		{
			"name":"Scene",
			"nodes":[
				0,
				1
			]
		}
	],
	"nodes":[
		{
			"mesh":0,
			"name":"Desert",
			"scale":[
				0.9909257888793945,
				0.9909257888793945,
				0.9909257888793945
			]
		},
		{
			"mesh":1,
			"name":"Road",
			"scale":[
				0.9909257888793945,
				0.9909257888793945,
				0.9909257888793945
			]
		}
	],
	"materials":[
		{
			"doubleSided":true,
			"name":"Desert",
			"pbrMetallicRoughness":{
				"baseColorFactor":[
					0.02377317287027836,
					0,
					0.8000000715255737,
					1
				],
				"metallicFactor":0,
				"roughnessFactor":0.5
			}
		},
		{
			"doubleSided":true,
			"name":"Road",
			"pbrMetallicRoughness":{
				"baseColorFactor":[
					0.8000000715255737,
					0,
					0.0179474875330925,
					1
				],
				"metallicFactor":0,
				"roughnessFactor":0.5
			}
		}
	],
	"meshes":[
		{
			"name":"Plane",
			"primitives":[
				{
					"attributes":{
						"POSITION":0,
						"NORMAL":1,
						"TEXCOORD_0":2,
						"TANGENT":3
					},
					"indices":4,
					"material":0
				}
			]
		},
		{
			"name":"Plane.001",
			"primitives":[
				{
					"attributes":{
						"POSITION":5,
						"NORMAL":6,
						"TEXCOORD_0":7,
						"TANGENT":8
					},
					"indices":9,
					"material":1
				}
			]
		}
	],
	"accessors":[
		{
			"bufferView":0,
			"componentType":5126,
			"count":30948,
			"max":[
				5,
				0.8667401671409607,
				5
			],
			"min":[
				-5,
				-3.409565761103295e-05,
				-5
			],
			"type":"VEC3"
		},
		{
			"bufferView":1,
			"componentType":5126,
			"count":30948,
			"type":"VEC3"
		},
		{
			"bufferView":2,
			"componentType":5126,
			"count":30948,
			"type":"VEC2"
		},
		{
			"bufferView":3,
			"componentType":5126,
			"count":30948,
			"type":"VEC4"
		},
		{
			"bufferView":4,
			"componentType":5123,
			"count":175692,
			"type":"SCALAR"
		},
		{
			"bufferView":5,
			"componentType":5126,
			"count":24,
			"max":[
				0.1149459108710289,
				0.00020546124142128974,
				5
			],
			"min":[
				-0.1149459108710289,
				0,
				-5
			],
			"type":"VEC3"
		},
		{
			"bufferView":6,
			"componentType":5126,
			"count":24,
			"type":"VEC3"
		},
		{
			"bufferView":7,
			"componentType":5126,
			"count":24,
			"type":"VEC2"
		},
		{
			"bufferView":8,
			"componentType":5126,
			"count":24,
			"type":"VEC4"
		},
		{
			"bufferView":9,
			"componentType":5123,
			"count":36,
			"type":"SCALAR"
		}
	],
	"bufferViews":[
		{
			"buffer":0,
			"byteLength":371376,
			"byteOffset":0,
			"target":34962
		},
		{
			"buffer":0,
			"byteLength":371376,
			"byteOffset":371376,
			"target":34962
		},
		{
			"buffer":0,
			"byteLength":247584,
			"byteOffset":742752,
			"target":34962
		},
		{
			"buffer":0,
			"byteLength":495168,
			"byteOffset":990336,
			"target":34962
		},
		{
			"buffer":0,
			"byteLength":351384,
			"byteOffset":1485504,
			"target":34963
		},
		{
			"buffer":0,
			"byteLength":288,
			"byteOffset":1836888,
			"target":34962
		},
		{
			"buffer":0,
			"byteLength":288,
			"byteOffset":1837176,
			"target":34962
		},
		{
			"buffer":0,
			"byteLength":192,
			"byteOffset":1837464,
			"target":34962
		},
		{
			"buffer":0,
			"byteLength":384,
			"byteOffset":1837656,
			"target":34962
		},
		{
			"buffer":0,
			"byteLength":72,
			"byteOffset":1838040,
			"target":34963
		}
	],
	"buffers":[
		{
			"byteLength":1838112,
			"uri":"Game_Map-3db40f3383a221f0953c5aa6259e5579.bin"
		}
	]
}
