{
	"asset":{
		"generator":"Khronos glTF Blender I/O v3.6.27",
		"version":"2.0"
	},
	"scene":0,
	"scenes":[
		{
			"name":"Scene",
			"nodes":[
				0,
				1,
				2,
				3,
				4,
				5
			]
		}
	],
	"nodes":[
		{
			"mesh":0,
			"name":"Desert",
			"scale":[
				0.9909257888793945,
				0.9909257888793945,
				0.9909257888793945
			]
		},
		{
			"mesh":1,
			"name":"Road",
			"scale":[
				0.9909257888793945,
				0.9909257888793945,
				0.9909257888793945
			]
		},
		{
			"mesh":2,
			"name":"Desert.001",
			"scale":[
				0.9909257888793945,
				0.9909257888793945,
				0.9909257888793945
			],
			"translation":[
				0,
				0,
				9.907882690429688
			]
		},
		{
			"mesh":3,
			"name":"Road.001",
			"scale":[
				0.9909257888793945,
				0.9909257888793945,
				0.9909257888793945
			],
			"translation":[
				0,
				0,
				9.907882690429688
			]
		},
		{
			"mesh":4,
			"name":"Desert.004",
			"scale":[
				0.9909257888793945,
				0.9909257888793945,
				0.9909257888793945
			],
			"translation":[
				0,
				0,
				-9.908988952636719
			]
		},
		{
			"mesh":5,
			"name":"Road.002",
			"scale":[
				0.9909257888793945,
				0.9909257888793945,
				0.9909257888793945
			],
			"translation":[
				0,
				0,
				-9.908988952636719
			]
		}
	],
	"materials":[
		{
			"doubleSided":true,
			"name":"Desert",
			"pbrMetallicRoughness":{
				"baseColorFactor":[
					0.02377317287027836,
					0,
					0.8000000715255737,
					1
				],
				"metallicFactor":0,
				"roughnessFactor":0.5
			}
		},
		{
			"doubleSided":true,
			"name":"Road",
			"pbrMetallicRoughness":{
				"baseColorFactor":[
					0.8000000715255737,
					0,
					0.0179474875330925,
					1
				],
				"metallicFactor":0,
				"roughnessFactor":0.5
			}
		}
	],
	"meshes":[
		{
			"name":"Plane",
			"primitives":[
				{
					"attributes":{
						"POSITION":0,
						"NORMAL":1,
						"TEXCOORD_0":2,
						"TANGENT":3
					},
					"indices":4,
					"material":0
				}
			]
		},
		{
			"name":"Plane.001",
			"primitives":[
				{
					"attributes":{
						"POSITION":5,
						"NORMAL":6,
						"TEXCOORD_0":7,
						"TANGENT":8
					},
					"indices":9,
					"material":1
				}
			]
		},
		{
			"name":"Plane.002",
			"primitives":[
				{
					"attributes":{
						"POSITION":10,
						"NORMAL":11,
						"TEXCOORD_0":12,
						"TANGENT":13
					},
					"indices":4,
					"material":0
				}
			]
		},
		{
			"name":"Plane.003",
			"primitives":[
				{
					"attributes":{
						"POSITION":14,
						"NORMAL":15,
						"TEXCOORD_0":16,
						"TANGENT":17
					},
					"indices":9,
					"material":1
				}
			]
		},
		{
			"name":"Plane.011",
			"primitives":[
				{
					"attributes":{
						"POSITION":18,
						"NORMAL":19,
						"TEXCOORD_0":20,
						"TANGENT":21
					},
					"indices":22,
					"material":0
				}
			]
		},
		{
			"name":"Plane.012",
			"primitives":[
				{
					"attributes":{
						"POSITION":23,
						"NORMAL":24,
						"TEXCOORD_0":25,
						"TANGENT":26
					},
					"indices":9,
					"material":1
				}
			]
		}
	],
	"accessors":[
		{
			"bufferView":0,
			"componentType":5126,
			"count":30948,
			"max":[
				5,
				0.8667401671409607,
				5
			],
			"min":[
				-5,
				-3.409565761103295e-05,
				-5
			],
			"type":"VEC3"
		},
		{
			"bufferView":1,
			"componentType":5126,
			"count":30948,
			"type":"VEC3"
		},
		{
			"bufferView":2,
			"componentType":5126,
			"count":30948,
			"type":"VEC2"
		},
		{
			"bufferView":3,
			"componentType":5126,
			"count":30948,
			"type":"VEC4"
		},
		{
			"bufferView":4,
			"componentType":5123,
			"count":175692,
			"type":"SCALAR"
		},
		{
			"bufferView":5,
			"componentType":5126,
			"count":24,
			"max":[
				0.09755508601665497,
				0.00020546124142128974,
				5
			],
			"min":[
				-0.09755508601665497,
				0,
				-5
			],
			"type":"VEC3"
		},
		{
			"bufferView":6,
			"componentType":5126,
			"count":24,
			"type":"VEC3"
		},
		{
			"bufferView":7,
			"componentType":5126,
			"count":24,
			"type":"VEC2"
		},
		{
			"bufferView":8,
			"componentType":5126,
			"count":24,
			"type":"VEC4"
		},
		{
			"bufferView":9,
			"componentType":5123,
			"count":36,
			"type":"SCALAR"
		},
		{
			"bufferView":10,
			"componentType":5126,
			"count":30948,
			"max":[
				5,
				0.8667401671409607,
				5
			],
			"min":[
				-5,
				-3.409565761103295e-05,
				-5
			],
			"type":"VEC3"
		},
		{
			"bufferView":11,
			"componentType":5126,
			"count":30948,
			"type":"VEC3"
		},
		{
			"bufferView":12,
			"componentType":5126,
			"count":30948,
			"type":"VEC2"
		},
		{
			"bufferView":13,
			"componentType":5126,
			"count":30948,
			"type":"VEC4"
		},
		{
			"bufferView":14,
			"componentType":5126,
			"count":24,
			"max":[
				0.09755508601665497,
				0.00020546124142128974,
				5
			],
			"min":[
				-0.09755508601665497,
				0,
				-5
			],
			"type":"VEC3"
		},
		{
			"bufferView":15,
			"componentType":5126,
			"count":24,
			"type":"VEC3"
		},
		{
			"bufferView":16,
			"componentType":5126,
			"count":24,
			"type":"VEC2"
		},
		{
			"bufferView":17,
			"componentType":5126,
			"count":24,
			"type":"VEC4"
		},
		{
			"bufferView":18,
			"componentType":5126,
			"count":30948,
			"max":[
				5,
				0.8667401671409607,
				5
			],
			"min":[
				-5,
				-3.409565761103295e-05,
				-5
			],
			"type":"VEC3"
		},
		{
			"bufferView":19,
			"componentType":5126,
			"count":30948,
			"type":"VEC3"
		},
		{
			"bufferView":20,
			"componentType":5126,
			"count":30948,
			"type":"VEC2"
		},
		{
			"bufferView":21,
			"componentType":5126,
			"count":30948,
			"type":"VEC4"
		},
		{
			"bufferView":22,
			"componentType":5123,
			"count":175692,
			"type":"SCALAR"
		},
		{
			"bufferView":23,
			"componentType":5126,
			"count":24,
			"max":[
				0.09755508601665497,
				0.00020546124142128974,
				5
			],
			"min":[
				-0.09755508601665497,
				0,
				-5
			],
			"type":"VEC3"
		},
		{
			"bufferView":24,
			"componentType":5126,
			"count":24,
			"type":"VEC3"
		},
		{
			"bufferView":25,
			"componentType":5126,
			"count":24,
			"type":"VEC2"
		},
		{
			"bufferView":26,
			"componentType":5126,
			"count":24,
			"type":"VEC4"
		}
	],
	"bufferViews":[
		{
			"buffer":0,
			"byteLength":371376,
			"byteOffset":0,
			"target":34962
		},
		{
			"buffer":0,
			"byteLength":371376,
			"byteOffset":371376,
			"target":34962
		},
		{
			"buffer":0,
			"byteLength":247584,
			"byteOffset":742752,
			"target":34962
		},
		{
			"buffer":0,
			"byteLength":495168,
			"byteOffset":990336,
			"target":34962
		},
		{
			"buffer":0,
			"byteLength":351384,
			"byteOffset":1485504,
			"target":34963
		},
		{
			"buffer":0,
			"byteLength":288,
			"byteOffset":1836888,
			"target":34962
		},
		{
			"buffer":0,
			"byteLength":288,
			"byteOffset":1837176,
			"target":34962
		},
		{
			"buffer":0,
			"byteLength":192,
			"byteOffset":1837464,
			"target":34962
		},
		{
			"buffer":0,
			"byteLength":384,
			"byteOffset":1837656,
			"target":34962
		},
		{
			"buffer":0,
			"byteLength":72,
			"byteOffset":1838040,
			"target":34963
		},
		{
			"buffer":0,
			"byteLength":371376,
			"byteOffset":1838112,
			"target":34962
		},
		{
			"buffer":0,
			"byteLength":371376,
			"byteOffset":2209488,
			"target":34962
		},
		{
			"buffer":0,
			"byteLength":247584,
			"byteOffset":2580864,
			"target":34962
		},
		{
			"buffer":0,
			"byteLength":495168,
			"byteOffset":2828448,
			"target":34962
		},
		{
			"buffer":0,
			"byteLength":288,
			"byteOffset":3323616,
			"target":34962
		},
		{
			"buffer":0,
			"byteLength":288,
			"byteOffset":3323904,
			"target":34962
		},
		{
			"buffer":0,
			"byteLength":192,
			"byteOffset":3324192,
			"target":34962
		},
		{
			"buffer":0,
			"byteLength":384,
			"byteOffset":3324384,
			"target":34962
		},
		{
			"buffer":0,
			"byteLength":371376,
			"byteOffset":3324768,
			"target":34962
		},
		{
			"buffer":0,
			"byteLength":371376,
			"byteOffset":3696144,
			"target":34962
		},
		{
			"buffer":0,
			"byteLength":247584,
			"byteOffset":4067520,
			"target":34962
		},
		{
			"buffer":0,
			"byteLength":495168,
			"byteOffset":4315104,
			"target":34962
		},
		{
			"buffer":0,
			"byteLength":351384,
			"byteOffset":4810272,
			"target":34963
		},
		{
			"buffer":0,
			"byteLength":288,
			"byteOffset":5161656,
			"target":34962
		},
		{
			"buffer":0,
			"byteLength":288,
			"byteOffset":5161944,
			"target":34962
		},
		{
			"buffer":0,
			"byteLength":192,
			"byteOffset":5162232,
			"target":34962
		},
		{
			"buffer":0,
			"byteLength":384,
			"byteOffset":5162424,
			"target":34962
		}
	],
	"buffers":[
		{
			"byteLength":5162808,
			"uri":"Game_Map_1-bd7157508dce8b5d88348bb1ba2a81f0.bin"
		}
	]
}
