{
	"asset":{
		"generator":"Khronos glTF Blender I/O v3.6.27",
		"version":"2.0"
	},
	"extensionsUsed":[
		"KHR_materials_transmission",
		"KHR_materials_specular"
	],
	"scene":0,
	"scenes":[
		{
			"name":"Scene",
			"nodes":[
				0,
				1,
				2,
				3,
				4,
				5
			]
		}
	],
	"nodes":[
		{
			"name":"Empty",
			"rotation":[
				0.5,
				0.5,
				-0.5,
				0.5
			],
			"scale":[
				0.45642125606536865,
				0.45642125606536865,
				0.45642125606536865
			],
			"translation":[
				-0.9429869651794434,
				1.4254794120788574,
				0
			]
		},
		{
			"mesh":0,
			"name":"Plane",
			"translation":[
				-1.9848530292510986,
				0,
				1.0498069524765015
			]
		},
		{
			"mesh":1,
			"name":"10072_Gas Station_V4_L3"
		},
		{
			"mesh":2,
			"name":"Plane.001"
		},
		{
			"mesh":3,
			"name":"Circle"
		},
		{
			"mesh":4,
			"name":"Plane.002"
		}
	],
	"materials":[
		{
			"doubleSided":true,
			"name":"Material.001",
			"pbrMetallicRoughness":{
				"baseColorFactor":[
					0.11557666957378387,
					0.06524423509836197,
					0.019540894776582718,
					1
				],
				"metallicFactor":0,
				"roughnessFactor":0.5
			}
		},
		{
			"doubleSided":true,
			"extensions":{
				"KHR_materials_transmission":{
					"transmissionFactor":1
				},
				"KHR_materials_specular":{
					"specularColorFactor":[
						1,
						1,
						1
					]
				}
			},
			"name":"10072_Gas_Station_V4",
			"pbrMetallicRoughness":{
				"baseColorTexture":{
					"index":0
				},
				"metallicFactor":0,
				"roughnessFactor":0.8999999761581421
			}
		},
		{
			"doubleSided":true,
			"name":"Material.002",
			"pbrMetallicRoughness":{
				"baseColorFactor":[
					0,
					0,
					0,
					1
				],
				"metallicFactor":0,
				"roughnessFactor":0.5
			}
		}
	],
	"meshes":[
		{
			"name":"Plane",
			"primitives":[
				{
					"attributes":{
						"POSITION":0,
						"NORMAL":1,
						"TEXCOORD_0":2,
						"TANGENT":3
					},
					"indices":4,
					"material":0
				}
			]
		},
		{
			"name":"10072_Gas Station_V4_L3",
			"primitives":[
				{
					"attributes":{
						"POSITION":5,
						"NORMAL":6,
						"TEXCOORD_0":7,
						"TANGENT":8
					},
					"indices":9,
					"material":1
				}
			]
		},
		{
			"name":"Plane.001",
			"primitives":[
				{
					"attributes":{
						"POSITION":10,
						"NORMAL":11,
						"TEXCOORD_0":12,
						"TANGENT":13
					},
					"indices":14,
					"material":2
				}
			]
		},
		{
			"name":"Circle",
			"primitives":[
				{
					"attributes":{
						"POSITION":15,
						"NORMAL":16,
						"TEXCOORD_0":17
					},
					"indices":18
				}
			]
		},
		{
			"name":"Plane.002",
			"primitives":[
				{
					"attributes":{
						"POSITION":19,
						"NORMAL":20,
						"TEXCOORD_0":21,
						"TANGENT":22
					},
					"indices":23,
					"material":0
				}
			]
		}
	],
	"textures":[
		{
			"sampler":0,
			"source":0
		}
	],
	"images":[
		{
			"mimeType":"image/jpeg",
			"name":"10072_Gas Station_V4_Diffuse.jpg",
			"uri":"../../../../../Downloads/GasStation_L3.123c68648dc7-3d9e-4b77-80df-99b669be3ec5/10072_Gas%20Station_V4_Diffuse.jpg"
		}
	],
	"accessors":[
		{
			"bufferView":0,
			"componentType":5126,
			"count":4489,
			"max":[
				6.839393615722656,
				2.980381488800049,
				44.67383575439453
			],
			"min":[
				-42.736412048339844,
				0,
				-4.901915550231934
			],
			"type":"VEC3"
		},
		{
			"bufferView":1,
			"componentType":5126,
			"count":4489,
			"type":"VEC3"
		},
		{
			"bufferView":2,
			"componentType":5126,
			"count":4489,
			"type":"VEC2"
		},
		{
			"bufferView":3,
			"componentType":5126,
			"count":4489,
			"type":"VEC4"
		},
		{
			"bufferView":4,
			"componentType":5123,
			"count":26136,
			"type":"SCALAR"
		},
		{
			"bufferView":5,
			"componentType":5126,
			"count":22451,
			"max":[
				-3.6751747131347656,
				0.9448521733283997,
				4.985815048217773
			],
			"min":[
				-6.495689868927002,
				0.01967829465866089,
				2.897810459136963
			],
			"type":"VEC3"
		},
		{
			"bufferView":6,
			"componentType":5126,
			"count":22451,
			"type":"VEC3"
		},
		{
			"bufferView":7,
			"componentType":5126,
			"count":22451,
			"type":"VEC2"
		},
		{
			"bufferView":8,
			"componentType":5126,
			"count":22451,
			"type":"VEC4"
		},
		{
			"bufferView":9,
			"componentType":5123,
			"count":98928,
			"type":"SCALAR"
		},
		{
			"bufferView":10,
			"componentType":5126,
			"count":24,
			"max":[
				-1.884420394897461,
				0.00509701669216156,
				18.10192108154297
			],
			"min":[
				-2.97275710105896,
				-0.10409094393253326,
				-6.456124305725098
			],
			"type":"VEC3"
		},
		{
			"bufferView":11,
			"componentType":5126,
			"count":24,
			"type":"VEC3"
		},
		{
			"bufferView":12,
			"componentType":5126,
			"count":24,
			"type":"VEC2"
		},
		{
			"bufferView":13,
			"componentType":5126,
			"count":24,
			"type":"VEC4"
		},
		{
			"bufferView":14,
			"componentType":5123,
			"count":36,
			"type":"SCALAR"
		},
		{
			"bufferView":15,
			"componentType":5126,
			"count":160,
			"max":[
				0.9660590887069702,
				0.31709545850753784,
				0.032900482416152954
			],
			"min":[
				0.8920503258705139,
				-0.15611959993839264,
				-0.0668596625328064
			],
			"type":"VEC3"
		},
		{
			"bufferView":16,
			"componentType":5126,
			"count":160,
			"type":"VEC3"
		},
		{
			"bufferView":17,
			"componentType":5126,
			"count":160,
			"type":"VEC2"
		},
		{
			"bufferView":18,
			"componentType":5123,
			"count":282,
			"type":"SCALAR"
		},
		{
			"bufferView":19,
			"componentType":5126,
			"count":132496,
			"max":[
				13.054827690124512,
				11.70612621307373,
				100.54764556884766
			],
			"min":[
				-145.56089782714844,
				-0.08196210861206055,
				-100
			],
			"type":"VEC3"
		},
		{
			"bufferView":20,
			"componentType":5126,
			"count":132496,
			"type":"VEC3"
		},
		{
			"bufferView":21,
			"componentType":5126,
			"count":132496,
			"type":"VEC2"
		},
		{
			"bufferView":22,
			"componentType":5126,
			"count":132496,
			"type":"VEC4"
		},
		{
			"bufferView":23,
			"componentType":5125,
			"count":790614,
			"type":"SCALAR"
		}
	],
	"bufferViews":[
		{
			"buffer":0,
			"byteLength":53868,
			"byteOffset":0,
			"target":34962
		},
		{
			"buffer":0,
			"byteLength":53868,
			"byteOffset":53868,
			"target":34962
		},
		{
			"buffer":0,
			"byteLength":35912,
			"byteOffset":107736,
			"target":34962
		},
		{
			"buffer":0,
			"byteLength":71824,
			"byteOffset":143648,
			"target":34962
		},
		{
			"buffer":0,
			"byteLength":52272,
			"byteOffset":215472,
			"target":34963
		},
		{
			"buffer":0,
			"byteLength":269412,
			"byteOffset":267744,
			"target":34962
		},
		{
			"buffer":0,
			"byteLength":269412,
			"byteOffset":537156,
			"target":34962
		},
		{
			"buffer":0,
			"byteLength":179608,
			"byteOffset":806568,
			"target":34962
		},
		{
			"buffer":0,
			"byteLength":359216,
			"byteOffset":986176,
			"target":34962
		},
		{
			"buffer":0,
			"byteLength":197856,
			"byteOffset":1345392,
			"target":34963
		},
		{
			"buffer":0,
			"byteLength":288,
			"byteOffset":1543248,
			"target":34962
		},
		{
			"buffer":0,
			"byteLength":288,
			"byteOffset":1543536,
			"target":34962
		},
		{
			"buffer":0,
			"byteLength":192,
			"byteOffset":1543824,
			"target":34962
		},
		{
			"buffer":0,
			"byteLength":384,
			"byteOffset":1544016,
			"target":34962
		},
		{
			"buffer":0,
			"byteLength":72,
			"byteOffset":1544400,
			"target":34963
		},
		{
			"buffer":0,
			"byteLength":1920,
			"byteOffset":1544472,
			"target":34962
		},
		{
			"buffer":0,
			"byteLength":1920,
			"byteOffset":1546392,
			"target":34962
		},
		{
			"buffer":0,
			"byteLength":1280,
			"byteOffset":1548312,
			"target":34962
		},
		{
			"buffer":0,
			"byteLength":564,
			"byteOffset":1549592,
			"target":34963
		},
		{
			"buffer":0,
			"byteLength":1589952,
			"byteOffset":1550156,
			"target":34962
		},
		{
			"buffer":0,
			"byteLength":1589952,
			"byteOffset":3140108,
			"target":34962
		},
		{
			"buffer":0,
			"byteLength":1059968,
			"byteOffset":4730060,
			"target":34962
		},
		{
			"buffer":0,
			"byteLength":2119936,
			"byteOffset":5790028,
			"target":34962
		},
		{
			"buffer":0,
			"byteLength":3162456,
			"byteOffset":7909964,
			"target":34963
		}
	],
	"samplers":[
		{
			"magFilter":9729,
			"minFilter":9987
		}
	],
	"buffers":[
		{
			"byteLength":11072420,
			"uri":"Main_Menu_Map-45df4e97af1fea76bdc512e33a63dc3f.bin"
		}
	]
}
