{
	"asset":{
		"generator":"Khronos glTF Blender I/O v3.6.27",
		"version":"2.0"
	},
	"extensionsUsed":[
		"KHR_materials_specular",
		"KHR_materials_ior"
	],
	"scene":0,
	"scenes":[
		{
			"name":"Scene",
			"nodes":[
				0,
				1
			]
		}
	],
	"nodes":[
		{
			"mesh":0,
			"name":"Cube"
		},
		{
			"mesh":1,
			"name":"Cube.001"
		}
	],
	"materials":[
		{
			"doubleSided":true,
			"extensions":{
				"KHR_materials_specular":{
					"specularColorFactor":[
						0,
						0,
						0
					]
				},
				"KHR_materials_ior":{
					"ior":1.4500000476837158
				}
			},
			"name":"Material",
			"pbrMetallicRoughness":{
				"baseColorFactor":[
					0.46413907408714294,
					0.46413907408714294,
					0.46413907408714294,
					1
				],
				"metallicFactor":0,
				"roughnessFactor":0.5
			}
		},
		{
			"doubleSided":true,
			"name":"Material.001",
			"pbrMetallicRoughness":{
				"metallicFactor":0,
				"roughnessFactor":0.5
			}
		}
	],
	"meshes":[
		{
			"name":"Cube.001",
			"primitives":[
				{
					"attributes":{
						"POSITION":0,
						"NORMAL":1,
						"TEXCOORD_0":2,
						"TANGENT":3
					},
					"indices":4,
					"material":0
				}
			]
		},
		{
			"name":"Cube.002",
			"primitives":[
				{
					"attributes":{
						"POSITION":5,
						"NORMAL":6,
						"TEXCOORD_0":7,
						"TANGENT":8
					},
					"indices":9,
					"material":1
				}
			]
		}
	],
	"accessors":[
		{
			"bufferView":0,
			"componentType":5126,
			"count":184,
			"max":[
				3.63173246383667,
				5.587424278259277,
				1.8823604583740234
			],
			"min":[
				-3.63173246383667,
				-0.08434296399354935,
				-1.8823604583740234
			],
			"type":"VEC3"
		},
		{
			"bufferView":1,
			"componentType":5126,
			"count":184,
			"type":"VEC3"
		},
		{
			"bufferView":2,
			"componentType":5126,
			"count":184,
			"type":"VEC2"
		},
		{
			"bufferView":3,
			"componentType":5126,
			"count":184,
			"type":"VEC4"
		},
		{
			"bufferView":4,
			"componentType":5123,
			"count":324,
			"type":"SCALAR"
		},
		{
			"bufferView":5,
			"componentType":5126,
			"count":24,
			"max":[
				1.5065836906433105,
				4.04763126373291,
				0.2802579700946808
			],
			"min":[
				-1.5065836906433105,
				2.415597915649414,
				0.23129037022590637
			],
			"type":"VEC3"
		},
		{
			"bufferView":6,
			"componentType":5126,
			"count":24,
			"type":"VEC3"
		},
		{
			"bufferView":7,
			"componentType":5126,
			"count":24,
			"type":"VEC2"
		},
		{
			"bufferView":8,
			"componentType":5126,
			"count":24,
			"type":"VEC4"
		},
		{
			"bufferView":9,
			"componentType":5123,
			"count":36,
			"type":"SCALAR"
		}
	],
	"bufferViews":[
		{
			"buffer":0,
			"byteLength":2208,
			"byteOffset":0,
			"target":34962
		},
		{
			"buffer":0,
			"byteLength":2208,
			"byteOffset":2208,
			"target":34962
		},
		{
			"buffer":0,
			"byteLength":1472,
			"byteOffset":4416,
			"target":34962
		},
		{
			"buffer":0,
			"byteLength":2944,
			"byteOffset":5888,
			"target":34962
		},
		{
			"buffer":0,
			"byteLength":648,
			"byteOffset":8832,
			"target":34963
		},
		{
			"buffer":0,
			"byteLength":288,
			"byteOffset":9480,
			"target":34962
		},
		{
			"buffer":0,
			"byteLength":288,
			"byteOffset":9768,
			"target":34962
		},
		{
			"buffer":0,
			"byteLength":192,
			"byteOffset":10056,
			"target":34962
		},
		{
			"buffer":0,
			"byteLength":384,
			"byteOffset":10248,
			"target":34962
		},
		{
			"buffer":0,
			"byteLength":72,
			"byteOffset":10632,
			"target":34963
		}
	],
	"buffers":[
		{
			"byteLength":10704,
			"uri":"Road_Closed_Sign-171414ddd06599f999d585c333abdb9d.bin"
		}
	]
}
