{
	"asset":{
		"generator":"Khronos glTF Blender I/O v3.6.27",
		"version":"2.0"
	},
	"scene":0,
	"scenes":[
		{
			"name":"Scene",
			"nodes":[
				0,
				1
			]
		}
	],
	"nodes":[
		{
			"mesh":0,
			"name":"Cube"
		},
		{
			"mesh":1,
			"name":"Cube.001"
		}
	],
	"meshes":[
		{
			"name":"Cube.001",
			"primitives":[
				{
					"attributes":{
						"POSITION":0,
						"NORMAL":1,
						"TEXCOORD_0":2,
						"TANGENT":3
					},
					"indices":4
				}
			]
		},
		{
			"name":"Cube.002",
			"primitives":[
				{
					"attributes":{
						"POSITION":5,
						"NORMAL":6,
						"TEXCOORD_0":7,
						"TANGENT":8
					},
					"indices":9
				}
			]
		}
	],
	"accessors":[
		{
			"bufferView":0,
			"componentType":5126,
			"count":244,
			"max":[
				3.63173246383667,
				5.587424278259277,
				1.8823604583740234
			],
			"min":[
				-3.63173246383667,
				-0.08434296399354935,
				-1.8823604583740234
			],
			"type":"VEC3"
		},
		{
			"bufferView":1,
			"componentType":5126,
			"count":244,
			"type":"VEC3"
		},
		{
			"bufferView":2,
			"componentType":5126,
			"count":244,
			"type":"VEC2"
		},
		{
			"bufferView":3,
			"componentType":5126,
			"count":244,
			"type":"VEC4"
		},
		{
			"bufferView":4,
			"componentType":5123,
			"count":414,
			"type":"SCALAR"
		},
		{
			"bufferView":5,
			"componentType":5126,
			"count":24,
			"max":[
				1.5065836906433105,
				4.04763126373291,
				0.2802579700946808
			],
			"min":[
				-1.5065836906433105,
				2.415597915649414,
				0.23129037022590637
			],
			"type":"VEC3"
		},
		{
			"bufferView":6,
			"componentType":5126,
			"count":24,
			"type":"VEC3"
		},
		{
			"bufferView":7,
			"componentType":5126,
			"count":24,
			"type":"VEC2"
		},
		{
			"bufferView":8,
			"componentType":5126,
			"count":24,
			"type":"VEC4"
		},
		{
			"bufferView":9,
			"componentType":5123,
			"count":36,
			"type":"SCALAR"
		}
	],
	"bufferViews":[
		{
			"buffer":0,
			"byteLength":2928,
			"byteOffset":0,
			"target":34962
		},
		{
			"buffer":0,
			"byteLength":2928,
			"byteOffset":2928,
			"target":34962
		},
		{
			"buffer":0,
			"byteLength":1952,
			"byteOffset":5856,
			"target":34962
		},
		{
			"buffer":0,
			"byteLength":3904,
			"byteOffset":7808,
			"target":34962
		},
		{
			"buffer":0,
			"byteLength":828,
			"byteOffset":11712,
			"target":34963
		},
		{
			"buffer":0,
			"byteLength":288,
			"byteOffset":12540,
			"target":34962
		},
		{
			"buffer":0,
			"byteLength":288,
			"byteOffset":12828,
			"target":34962
		},
		{
			"buffer":0,
			"byteLength":192,
			"byteOffset":13116,
			"target":34962
		},
		{
			"buffer":0,
			"byteLength":384,
			"byteOffset":13308,
			"target":34962
		},
		{
			"buffer":0,
			"byteLength":72,
			"byteOffset":13692,
			"target":34963
		}
	],
	"buffers":[
		{
			"byteLength":13764,
			"uri":"Road_Closed_Sign-171414ddd06599f999d585c333abdb9d.bin"
		}
	]
}
