{
	"asset":{
		"generator":"Khronos glTF Blender I/O v3.6.27",
		"version":"2.0"
	},
	"scene":0,
	"scenes":[
		{
			"name":"Scene",
			"nodes":[
				0
			]
		}
	],
	"nodes":[
		{
			"mesh":0,
			"name":"Cube",
			"rotation":[
				0,
				0.7071068286895752,
				0,
				0.7071068286895752
			],
			"scale":[
				0.3309720456600189,
				0.11109106987714767,
				0.11109106987714767
			]
		}
	],
	"meshes":[
		{
			"name":"Cube.001",
			"primitives":[
				{
					"attributes":{
						"POSITION":0,
						"NORMAL":1,
						"TEXCOORD_0":2,
						"TANGENT":3
					},
					"indices":4
				}
			]
		}
	],
	"accessors":[
		{
			"bufferView":0,
			"componentType":5126,
			"count":142,
			"max":[
				6.141519546508789,
				0.24239322543144226,
				0.24239319562911987
			],
			"min":[
				-6.141520023345947,
				-0.24239322543144226,
				-0.24239319562911987
			],
			"type":"VEC3"
		},
		{
			"bufferView":1,
			"componentType":5126,
			"count":142,
			"type":"VEC3"
		},
		{
			"bufferView":2,
			"componentType":5126,
			"count":142,
			"type":"VEC2"
		},
		{
			"bufferView":3,
			"componentType":5126,
			"count":142,
			"type":"VEC4"
		},
		{
			"bufferView":4,
			"componentType":5123,
			"count":576,
			"type":"SCALAR"
		}
	],
	"bufferViews":[
		{
			"buffer":0,
			"byteLength":1704,
			"byteOffset":0,
			"target":34962
		},
		{
			"buffer":0,
			"byteLength":1704,
			"byteOffset":1704,
			"target":34962
		},
		{
			"buffer":0,
			"byteLength":1136,
			"byteOffset":3408,
			"target":34962
		},
		{
			"buffer":0,
			"byteLength":2272,
			"byteOffset":4544,
			"target":34962
		},
		{
			"buffer":0,
			"byteLength":1152,
			"byteOffset":6816,
			"target":34963
		}
	],
	"buffers":[
		{
			"byteLength":7968,
			"uri":"SpeedParticle_Mesh-2767d773cd45a690e7363699eb03ae48.bin"
		}
	]
}
