# Blender 3.6.4
# www.blender.org
mtllib SpeedParticle_Mesh.mtl
o Cube
v 0.016038 -0.016038 1.210635
v 0.016038 0.016038 1.210635
v -0.016038 -0.016038 1.210635
v -0.016038 0.016038 1.210636
v 0.016038 -0.016038 -1.210635
v 0.016038 0.016038 -1.210635
v -0.016038 -0.016038 -1.210635
v -0.016038 0.016038 -1.210635
v -0.009515 -0.018377 1.387225
v 0.000000 -0.019552 1.475929
v 0.009515 -0.018377 1.387225
v 0.018377 -0.009515 1.387225
v 0.019552 -0.000000 1.475929
v 0.018377 0.009515 1.387225
v 0.009515 0.018377 1.387225
v 0.000000 0.019552 1.475929
v -0.009515 0.018377 1.387225
v -0.018377 0.009515 1.387225
v -0.019552 -0.000000 1.475929
v -0.018377 -0.009515 1.387225
v -0.018377 -0.018377 -0.718270
v -0.019552 -0.019552 0.000000
v -0.018377 -0.018377 0.718270
v -0.018377 0.018377 0.718270
v -0.019552 0.019552 0.000000
v -0.018377 0.018377 -0.718270
v -0.018377 0.009515 -1.387225
v -0.019552 -0.000000 -1.475929
v -0.018377 -0.009515 -1.387225
v 0.009515 -0.018377 -1.387225
v -0.000000 -0.019552 -1.475929
v -0.009515 -0.018377 -1.387225
v -0.009515 0.018377 -1.387225
v -0.000000 0.019552 -1.475929
v 0.009515 0.018377 -1.387225
v 0.018377 0.009515 -1.387225
v 0.019552 -0.000000 -1.475929
v 0.018377 -0.009515 -1.387225
v 0.018377 -0.018377 0.718270
v 0.019552 -0.019552 0.000000
v 0.018377 -0.018377 -0.718270
v 0.018377 0.018377 -0.718270
v 0.019552 0.019552 0.000000
v 0.018377 0.018377 0.718270
v 0.010141 -0.010141 1.765082
v 0.010686 -0.000000 1.893019
v 0.010141 0.010141 1.765082
v 0.000000 -0.010686 1.893019
v 0.000000 0.000000 2.032671
v 0.000000 0.010686 1.893019
v -0.010141 -0.010141 1.765082
v -0.010686 0.000000 1.893019
v -0.010141 0.010141 1.765082
v -0.023383 -0.010141 0.765502
v -0.025078 -0.000000 0.806623
v -0.023383 0.010141 0.765502
v -0.025078 -0.010686 0.000000
v -0.026928 -0.000000 0.000000
v -0.025078 0.010686 0.000000
v -0.023383 -0.010141 -0.765502
v -0.025078 0.000000 -0.806623
v -0.023383 0.010141 -0.765502
v -0.010141 -0.010141 -1.765082
v -0.010686 -0.000000 -1.893019
v -0.010141 0.010141 -1.765082
v -0.000000 -0.010686 -1.893019
v -0.000000 -0.000000 -2.032671
v -0.000000 0.010686 -1.893019
v 0.010141 -0.010141 -1.765082
v 0.010686 0.000000 -1.893019
v 0.010141 0.010141 -1.765082
v 0.023383 -0.010141 -0.765502
v 0.025078 -0.000000 -0.806623
v 0.023383 0.010141 -0.765502
v 0.025078 -0.010686 0.000000
v 0.026928 -0.000000 0.000000
v 0.025078 0.010686 0.000000
v 0.023383 -0.010141 0.765502
v 0.025078 0.000000 0.806623
v 0.023383 0.010141 0.765502
v -0.010141 -0.023383 0.765502
v -0.010686 -0.025078 0.000000
v -0.010141 -0.023383 -0.765502
v 0.000000 -0.025078 0.806623
v -0.000000 -0.026928 0.000000
v -0.000000 -0.025078 -0.806623
v 0.010141 -0.023383 0.765502
v 0.010686 -0.025078 0.000000
v 0.010141 -0.023383 -0.765502
v -0.010141 0.023383 -0.765502
v -0.010686 0.025078 0.000000
v -0.010141 0.023383 0.765502
v -0.000000 0.025078 -0.806623
v 0.000000 0.026928 0.000000
v 0.000000 0.025078 0.806623
v 0.010141 0.023383 -0.765502
v 0.010686 0.025078 0.000000
v 0.010141 0.023383 0.765502
vn 0.7069 -0.7069 0.0245
vn 0.7319 -0.6795 0.0513
vn 0.7061 -0.7061 0.0535
vn 0.6795 -0.7319 0.0513
vn 0.7319 0.6795 0.0513
vn 0.7069 0.7069 0.0245
vn 0.6795 0.7319 0.0513
vn 0.7061 0.7061 0.0535
vn -0.6795 -0.7319 0.0513
vn -0.7061 -0.7061 0.0535
vn -0.7319 -0.6795 0.0513
vn -0.7069 -0.7069 0.0245
vn -0.7061 0.7061 0.0535
vn -0.6795 0.7319 0.0513
vn -0.7069 0.7069 0.0245
vn -0.7319 0.6795 0.0513
vn 0.7071 -0.7071 0.0075
vn 0.8820 -0.4712 0.0125
vn 0.4712 -0.8820 0.0125
vn 0.9998 -0.0000 0.0199
vn 0.8820 0.4712 0.0125
vn 0.7071 0.7071 0.0075
vn 0.4712 0.8820 0.0125
vn -0.0000 0.9998 0.0199
vn -0.4712 0.8820 0.0125
vn -0.7071 0.7071 0.0075
vn -0.8820 0.4712 0.0125
vn -0.9998 -0.0000 0.0199
vn -0.8820 -0.4712 0.0125
vn -0.4712 -0.8820 0.0125
vn -0.7071 -0.7071 0.0075
vn -0.0000 -0.9998 0.0199
vn -0.9333 -0.3590 0.0049
vn -1.0000 -0.0000 0.0070
vn -1.0000 -0.0000 -0.0000
vn -0.9341 -0.3570 -0.0000
vn -0.9333 0.3590 0.0049
vn -0.9341 0.3570 -0.0000
vn -1.0000 -0.0000 -0.0070
vn -0.9333 -0.3590 -0.0049
vn -0.9333 0.3590 -0.0049
vn -0.7071 -0.7071 0.0032
vn -0.7071 0.7071 0.0032
vn -0.7071 0.7071 -0.0000
vn -0.7071 0.7071 -0.0032
vn -0.7071 0.7071 -0.0075
vn -0.8820 0.4712 -0.0125
vn -0.9998 -0.0000 -0.0199
vn -0.8820 -0.4712 -0.0125
vn -0.7071 -0.7071 -0.0032
vn -0.7071 -0.7071 -0.0075
vn -0.7071 -0.7071 -0.0000
vn -0.7069 -0.7069 -0.0245
vn -0.7319 -0.6795 -0.0513
vn -0.7061 -0.7061 -0.0535
vn -0.6795 -0.7319 -0.0513
vn -0.7319 0.6795 -0.0513
vn -0.7069 0.7069 -0.0245
vn -0.6795 0.7319 -0.0513
vn -0.7061 0.7061 -0.0535
vn 0.6795 -0.7319 -0.0513
vn 0.7061 -0.7061 -0.0535
vn 0.7319 -0.6795 -0.0513
vn 0.7069 -0.7069 -0.0245
vn 0.7061 0.7061 -0.0535
vn 0.6795 0.7319 -0.0513
vn 0.7069 0.7069 -0.0245
vn 0.7319 0.6795 -0.0513
vn -0.4712 -0.8820 -0.0125
vn -0.4712 0.8820 -0.0125
vn -0.0000 0.9998 -0.0199
vn 0.4712 0.8820 -0.0125
vn 0.7071 0.7071 -0.0075
vn 0.8820 0.4712 -0.0125
vn 0.9998 -0.0000 -0.0199
vn 0.8820 -0.4712 -0.0125
vn 0.4712 -0.8820 -0.0125
vn 0.7071 -0.7071 -0.0075
vn -0.0000 -0.9998 -0.0199
vn 0.9333 -0.3590 -0.0049
vn 1.0000 -0.0000 -0.0070
vn 1.0000 -0.0000 -0.0000
vn 0.9341 -0.3570 -0.0000
vn 0.9333 0.3590 -0.0049
vn 0.9341 0.3570 -0.0000
vn 1.0000 -0.0000 0.0070
vn 0.9333 -0.3590 0.0049
vn 0.9333 0.3590 0.0049
vn 0.7071 -0.7071 -0.0032
vn 0.7071 0.7071 -0.0032
vn 0.7071 0.7071 -0.0000
vn 0.7071 0.7071 0.0032
vn 0.7071 -0.7071 0.0032
vn 0.7071 -0.7071 -0.0000
vn -0.3590 -0.9333 0.0049
vn -0.3570 -0.9341 -0.0000
vn -0.0000 -1.0000 -0.0000
vn -0.0000 -1.0000 0.0070
vn -0.3590 -0.9333 -0.0049
vn -0.0000 -1.0000 -0.0070
vn 0.3570 -0.9341 -0.0000
vn 0.3590 -0.9333 0.0049
vn 0.3590 -0.9333 -0.0049
vn -0.3590 0.9333 -0.0049
vn -0.3570 0.9341 -0.0000
vn -0.0000 1.0000 -0.0000
vn -0.0000 1.0000 -0.0070
vn -0.3590 0.9333 0.0049
vn -0.0000 1.0000 0.0070
vn 0.3570 0.9341 -0.0000
vn 0.3590 0.9333 -0.0049
vn 0.3590 0.9333 0.0049
vt 0.437500 0.062500
vt 0.500000 0.062500
vt 0.500000 0.125000
vt 0.437500 0.125000
vt 0.562500 0.062500
vt 0.562500 0.125000
vt 0.500000 0.187500
vt 0.437500 0.187500
vt 0.562500 0.187500
vt 0.375000 0.000000
vt 0.437500 0.000000
vt 0.375000 0.062500
vt 0.500000 0.000000
vt 0.562500 0.000000
vt 0.625000 0.000000
vt 0.625000 0.062500
vt 0.625000 0.125000
vt 0.625000 0.187500
vt 0.625000 0.250000
vt 0.562500 0.250000
vt 0.500000 0.250000
vt 0.437500 0.250000
vt 0.375000 0.187500
vt 0.375000 0.250000
vt 0.375000 0.125000
vt 0.437500 0.312500
vt 0.500000 0.312500
vt 0.500000 0.375000
vt 0.437500 0.375000
vt 0.562500 0.312500
vt 0.562500 0.375000
vt 0.500000 0.437500
vt 0.437500 0.437500
vt 0.562500 0.437500
vt 0.375000 0.312500
vt 0.625000 0.312500
vt 0.625000 0.375000
vt 0.625000 0.437500
vt 0.625000 0.500000
vt 0.562500 0.500000
vt 0.500000 0.500000
vt 0.437500 0.500000
vt 0.375000 0.437500
vt 0.375000 0.500000
vt 0.375000 0.375000
vt 0.437500 0.562500
vt 0.500000 0.562500
vt 0.500000 0.625000
vt 0.437500 0.625000
vt 0.562500 0.562500
vt 0.562500 0.625000
vt 0.500000 0.687500
vt 0.437500 0.687500
vt 0.562500 0.687500
vt 0.375000 0.562500
vt 0.625000 0.562500
vt 0.625000 0.625000
vt 0.625000 0.687500
vt 0.625000 0.750000
vt 0.562500 0.750000
vt 0.500000 0.750000
vt 0.437500 0.750000
vt 0.375000 0.687500
vt 0.375000 0.750000
vt 0.375000 0.625000
vt 0.437500 0.812500
vt 0.500000 0.812500
vt 0.500000 0.875000
vt 0.437500 0.875000
vt 0.562500 0.812500
vt 0.562500 0.875000
vt 0.500000 0.937500
vt 0.437500 0.937500
vt 0.562500 0.937500
vt 0.375000 0.812500
vt 0.625000 0.812500
vt 0.625000 0.875000
vt 0.625000 0.937500
vt 0.625000 1.000000
vt 0.562500 1.000000
vt 0.500000 1.000000
vt 0.437500 1.000000
vt 0.375000 0.937500
vt 0.375000 1.000000
vt 0.375000 0.875000
vt 0.187500 0.562500
vt 0.250000 0.562500
vt 0.250000 0.625000
vt 0.187500 0.625000
vt 0.312500 0.562500
vt 0.312500 0.625000
vt 0.250000 0.687500
vt 0.187500 0.687500
vt 0.312500 0.687500
vt 0.125000 0.500000
vt 0.187500 0.500000
vt 0.125000 0.562500
vt 0.250000 0.500000
vt 0.312500 0.500000
vt 0.312500 0.750000
vt 0.250000 0.750000
vt 0.187500 0.750000
vt 0.125000 0.687500
vt 0.125000 0.750000
vt 0.125000 0.625000
vt 0.687500 0.562500
vt 0.750000 0.562500
vt 0.750000 0.625000
vt 0.687500 0.625000
vt 0.812500 0.562500
vt 0.812500 0.625000
vt 0.750000 0.687500
vt 0.687500 0.687500
vt 0.812500 0.687500
vt 0.687500 0.500000
vt 0.750000 0.500000
vt 0.812500 0.500000
vt 0.875000 0.500000
vt 0.875000 0.562500
vt 0.875000 0.625000
vt 0.875000 0.687500
vt 0.875000 0.750000
vt 0.812500 0.750000
vt 0.750000 0.750000
vt 0.687500 0.750000
s 1
f 45/1/1 46/2/2 49/3/3 48/4/4
f 46/2/5 47/5/6 50/6/7 49/3/8
f 48/4/9 49/3/10 52/7/11 51/8/12
f 49/3/13 50/6/14 53/9/15 52/7/16
f 1/10/17 12/11/18 45/1/1 11/12/19
f 12/11/18 13/13/20 46/2/2 45/1/1
f 13/13/20 14/14/21 47/5/6 46/2/5
f 14/14/21 2/15/22 15/16/23 47/5/6
f 47/5/6 15/16/23 16/17/24 50/6/7
f 50/6/14 16/17/24 17/18/25 53/9/15
f 53/9/15 17/18/25 4/19/26 18/20/27
f 52/7/16 53/9/15 18/20/27 19/21/28
f 51/8/12 52/7/11 19/21/28 20/22/29
f 9/23/30 51/8/12 20/22/29 3/24/31
f 10/25/32 48/4/9 51/8/12 9/23/30
f 11/12/19 45/1/1 48/4/4 10/25/32
f 54/26/33 55/27/34 58/28/35 57/29/36
f 55/27/34 56/30/37 59/31/38 58/28/35
f 57/29/36 58/28/35 61/32/39 60/33/40
f 58/28/35 59/31/38 62/34/41 61/32/39
f 3/24/31 20/22/29 54/26/33 23/35/42
f 20/22/29 19/21/28 55/27/34 54/26/33
f 19/21/28 18/20/27 56/30/37 55/27/34
f 18/20/27 4/19/26 24/36/43 56/30/37
f 56/30/37 24/36/43 25/37/44 59/31/38
f 59/31/38 25/37/44 26/38/45 62/34/41
f 62/34/41 26/38/45 8/39/46 27/40/47
f 61/32/39 62/34/41 27/40/47 28/41/48
f 60/33/40 61/32/39 28/41/48 29/42/49
f 21/43/50 60/33/40 29/42/49 7/44/51
f 22/45/52 57/29/36 60/33/40 21/43/50
f 23/35/42 54/26/33 57/29/36 22/45/52
f 63/46/53 64/47/54 67/48/55 66/49/56
f 64/47/57 65/50/58 68/51/59 67/48/60
f 66/49/61 67/48/62 70/52/63 69/53/64
f 67/48/65 68/51/66 71/54/67 70/52/68
f 7/44/51 29/42/49 63/46/53 32/55/69
f 29/42/49 28/41/48 64/47/54 63/46/53
f 28/41/48 27/40/47 65/50/58 64/47/57
f 27/40/47 8/39/46 33/56/70 65/50/58
f 65/50/58 33/56/70 34/57/71 68/51/59
f 68/51/66 34/57/71 35/58/72 71/54/67
f 71/54/67 35/58/72 6/59/73 36/60/74
f 70/52/68 71/54/67 36/60/74 37/61/75
f 69/53/64 70/52/63 37/61/75 38/62/76
f 30/63/77 69/53/64 38/62/76 5/64/78
f 31/65/79 66/49/61 69/53/64 30/63/77
f 32/55/69 63/46/53 66/49/56 31/65/79
f 72/66/80 73/67/81 76/68/82 75/69/83
f 73/67/81 74/70/84 77/71/85 76/68/82
f 75/69/83 76/68/82 79/72/86 78/73/87
f 76/68/82 77/71/85 80/74/88 79/72/86
f 5/64/78 38/62/76 72/66/80 41/75/89
f 38/62/76 37/61/75 73/67/81 72/66/80
f 37/61/75 36/60/74 74/70/84 73/67/81
f 36/60/74 6/59/73 42/76/90 74/70/84
f 74/70/84 42/76/90 43/77/91 77/71/85
f 77/71/85 43/77/91 44/78/92 80/74/88
f 80/74/88 44/78/92 2/79/22 14/80/21
f 79/72/86 80/74/88 14/80/21 13/81/20
f 78/73/87 79/72/86 13/81/20 12/82/18
f 39/83/93 78/73/87 12/82/18 1/84/17
f 40/85/94 75/69/83 78/73/87 39/83/93
f 41/75/89 72/66/80 75/69/83 40/85/94
f 81/86/95 82/87/96 85/88/97 84/89/98
f 82/87/96 83/90/99 86/91/100 85/88/97
f 84/89/98 85/88/97 88/92/101 87/93/102
f 85/88/97 86/91/100 89/94/103 88/92/101
f 3/95/31 23/96/42 81/86/95 9/97/30
f 23/96/42 22/98/52 82/87/96 81/86/95
f 22/98/52 21/99/50 83/90/99 82/87/96
f 21/99/50 7/44/51 32/55/69 83/90/99
f 83/90/99 32/55/69 31/65/79 86/91/100
f 86/91/100 31/65/79 30/63/77 89/94/103
f 89/94/103 30/63/77 5/64/78 41/100/89
f 88/92/101 89/94/103 41/100/89 40/101/94
f 87/93/102 88/92/101 40/101/94 39/102/93
f 11/103/19 87/93/102 39/102/93 1/104/17
f 10/105/32 84/89/98 87/93/102 11/103/19
f 9/97/30 81/86/95 84/89/98 10/105/32
f 90/106/104 91/107/105 94/108/106 93/109/107
f 91/107/105 92/110/108 95/111/109 94/108/106
f 93/109/107 94/108/106 97/112/110 96/113/111
f 94/108/106 95/111/109 98/114/112 97/112/110
f 8/39/46 26/115/45 90/106/104 33/56/70
f 26/115/45 25/116/44 91/107/105 90/106/104
f 25/116/44 24/117/43 92/110/108 91/107/105
f 24/117/43 4/118/26 17/119/25 92/110/108
f 92/110/108 17/119/25 16/120/24 95/111/109
f 95/111/109 16/120/24 15/121/23 98/114/112
f 98/114/112 15/121/23 2/122/22 44/123/92
f 97/112/110 98/114/112 44/123/92 43/124/91
f 96/113/111 97/112/110 43/124/91 42/125/90
f 35/58/72 96/113/111 42/125/90 6/59/73
f 34/57/71 93/109/107 96/113/111 35/58/72
f 33/56/70 90/106/104 93/109/107 34/57/71
